<?xml version="1.0" encoding="utf-8"?>
<!-- Generator: Adobe Illustrator 17.1.0, SVG Export Plug-In . SVG Version: 6.00 Build 0)  -->
<!DOCTYPE svg PUBLIC "-//W3C//DTD SVG 1.1//EN" "http://www.w3.org/Graphics/SVG/1.1/DTD/svg11.dtd">
<svg version="1.1" id="Capa_1" xmlns="http://www.w3.org/2000/svg" xmlns:xlink="http://www.w3.org/1999/xlink" x="0px" y="0px"
	 viewBox="0 0 181.773 104.988" enable-background="new 0 0 181.773 104.988" xml:space="preserve">
<g>
	<polygon fill="#CCCCCC" points="10.079,19.383 10.17,19.383 23.593,40.988 30.689,40.988 30.689,8.717 24.046,8.717 24.046,30.366 
		23.955,30.366 10.486,8.717 3.435,8.717 3.435,40.988 10.079,40.988 	"/>
	<path fill="#CCCCCC" d="M49.743,41.756c3.119,0,6.373-1.22,8.859-4.429l0.723,3.661h4.52V23.542H50.285v5.288h7.142
		c-0.407,4.475-3.073,6.96-7.684,6.96c-6.373,0-8.768-5.424-8.768-10.802c0-5.65,2.395-11.074,8.768-11.074
		c3.345,0,6.011,1.853,6.825,5.424h6.78c-0.768-7.322-7.006-11.39-13.604-11.39c-9.989,0-15.864,7.458-15.864,17.04
		C33.878,34.298,39.754,41.756,49.743,41.756z"/>
	<path fill="#CCCCCC" d="M98.124,24.988c0-9.582-5.875-17.04-15.864-17.04c-9.989,0-15.864,7.458-15.864,17.04
		c0,9.31,5.876,16.768,15.864,16.768C92.248,41.756,98.124,34.298,98.124,24.988z M73.491,24.988c0-5.65,2.395-11.074,8.768-11.074
		c6.373,0,8.768,5.424,8.768,11.074c0,5.378-2.396,10.802-8.768,10.802C75.887,35.79,73.491,30.366,73.491,24.988z"/>
	<path fill="#CCCCCC" d="M12.249,45.903L0,78.174h7.186l2.531-7.186h12.068l2.441,7.186h7.367L19.526,45.903H12.249z M11.571,65.699
		l4.203-11.841h0.09l4.068,11.841H11.571z"/>
	<rect x="32.73" y="45.903" fill="#CCCCCC" width="6.418" height="5.288"/>
	<rect x="32.73" y="54.808" fill="#CCCCCC" width="6.418" height="23.366"/>
	<path fill="#CCCCCC" d="M59.184,57.654h-0.09c-1.446-2.305-4.158-3.48-6.915-3.48c-6.87,0-10.35,5.831-10.35,12.113
		c0,6.463,3.435,12.521,10.486,12.521c2.983,0,5.604-1.085,7.096-3.617h0.09v2.983h6.102V45.903h-6.418V57.654z M53.896,73.971
		c-3.978,0-5.65-3.842-5.65-7.503c0-3.842,1.446-7.457,5.65-7.457c4.158,0,5.514,3.615,5.514,7.411
		C59.41,70.264,58.144,73.971,53.896,73.971z"/>
	<polygon fill="#CCCCCC" points="112.786,78.174 112.786,45.903 102.798,45.903 95.655,68.096 95.566,68.096 88.017,45.903 
		78.029,45.903 78.029,78.174 84.673,78.174 84.673,55.53 84.763,55.53 92.673,78.174 98.141,78.174 106.051,55.305 106.142,55.305 
		106.142,78.174 	"/>
	<path fill="#CCCCCC" d="M138.753,78.174c-0.588-0.948-0.813-3.073-0.813-5.197V60.818c0-5.604-5.605-6.644-10.261-6.644
		c-5.243,0-10.621,1.808-10.983,7.82h6.417c0.226-2.532,1.808-3.526,4.249-3.526c2.26,0,4.158,0.406,4.158,3.164
		c0,2.621-3.661,2.485-7.592,3.073c-3.978,0.542-7.955,1.808-7.955,7.097c0,4.79,3.526,7.006,7.955,7.006
		c2.846,0,5.829-0.769,7.864-2.893c0.046,0.769,0.225,1.536,0.451,2.26H138.753z M131.521,69.135c0,1.401-0.181,5.378-5.197,5.378
		c-2.079,0-3.933-0.588-3.933-2.983c0-2.349,1.808-3.029,3.798-3.434c1.988-0.362,4.247-0.407,5.333-1.357V69.135z"/>
	<path fill="#CCCCCC" d="M148.031,75.282h0.091c1.536,2.305,4.203,3.526,7.006,3.526c6.825,0,10.259-5.831,10.259-12.069
		c0-6.644-3.299-12.565-10.621-12.565c-2.893,0-5.424,1.131-6.96,3.617h-0.091v-2.983h-6.101V86.4h6.418V75.282z M153.364,59.011
		c4.112,0,5.604,3.842,5.604,7.548c0,3.796-1.356,7.411-5.559,7.411c-4.159,0-5.604-3.615-5.604-7.411
		C147.806,62.762,149.161,59.011,153.364,59.011z"/>
	<path fill="#CCCCCC" d="M95.389,89.987l-3.32,8.496h1.166l0.952-2.558h3.594l0.928,2.558h1.25l-3.32-8.496H95.389z M94.544,94.974
		l1.439-3.964h0.025l1.416,3.964H94.544z"/>
	<path fill="#CCCCCC" d="M103.518,92.19c-0.881,0-1.572,0.356-1.999,1.117h-0.024v-0.975h-0.953v6.151h1.012v-3.474
		c0-1.107,0.595-1.927,1.822-1.927c0.773,0,1.248,0.488,1.248,1.237v4.165h1.011v-4.046C105.635,93.117,105.135,92.19,103.518,92.19
		z"/>
	<rect x="141.817" y="89.987" fill="#CCCCCC" width="1.131" height="8.496"/>
	<path fill="#CCCCCC" d="M147.381,92.19c-0.881,0-1.57,0.356-2,1.117h-0.023v-0.975h-0.951v6.151h1.011v-3.474
		c0-1.107,0.594-1.927,1.82-1.927c0.773,0,1.25,0.488,1.25,1.237v4.165h1.011v-4.046C149.499,93.117,148.999,92.19,147.381,92.19z"
		/>
	<rect x="150.809" y="92.332" fill="#CCCCCC" width="1.011" height="6.151"/>
	<rect x="150.809" y="89.987" fill="#CCCCCC" width="1.011" height="1.238"/>
	<path fill="#CCCCCC" d="M154.56,90.487h-1.012v1.845h-1.047v0.892h1.047v3.915c0,1.131,0.418,1.344,1.464,1.344h0.773v-0.892
		h-0.465c-0.631,0-0.762-0.082-0.762-0.547v-3.82h1.226v-0.892h-1.226V90.487z"/>
	<rect x="156.647" y="89.987" fill="#CCCCCC" width="1.012" height="1.238"/>
	<rect x="156.647" y="92.332" fill="#CCCCCC" width="1.012" height="6.151"/>
	<path fill="#CCCCCC" d="M163.802,97.044v-3.165c0-1.439-1.201-1.689-2.308-1.689c-1.369,0-2.546,0.535-2.607,2.058h1.012
		c0.049-0.904,0.679-1.166,1.536-1.166c0.642,0,1.367,0.143,1.367,1.023c0,0.762-0.951,0.69-2.07,0.904
		c-1.047,0.201-2.082,0.5-2.082,1.892c0,1.225,0.916,1.725,2.035,1.725c0.856,0,1.605-0.297,2.166-0.951
		c0,0.666,0.332,0.951,0.856,0.951c0.322,0,0.548-0.059,0.726-0.166v-0.785c-0.131,0.047-0.226,0.059-0.309,0.059
		C163.802,97.734,163.802,97.521,163.802,97.044z M162.79,96.341c0,0.56-0.547,1.392-1.88,1.392c-0.617,0-1.189-0.238-1.189-0.904
		c0-0.75,0.572-0.988,1.238-1.107c0.678-0.118,1.439-0.131,1.832-0.416V96.341z"/>
	<path fill="#CCCCCC" d="M166.526,90.487h-1.012v1.845h-1.047v0.892h1.047v3.915c0,1.131,0.416,1.344,1.463,1.344h0.773v-0.892
		h-0.463c-0.631,0-0.762-0.082-0.762-0.547v-3.82h1.225v-0.892h-1.225V90.487z"/>
	<rect x="168.614" y="92.332" fill="#CCCCCC" width="1.012" height="6.151"/>
	<rect x="168.614" y="89.987" fill="#CCCCCC" width="1.012" height="1.238"/>
	<polygon fill="#CCCCCC" points="173.215,97.46 173.192,97.46 171.466,92.332 170.337,92.332 172.621,98.484 173.703,98.484 
		175.953,92.332 174.893,92.332 	"/>
	<path fill="#CCCCCC" d="M179.08,97.734c-1.344,0-1.951-0.951-1.916-2.023h4.605c0.06-1.486-0.606-3.521-2.785-3.521
		c-1.678,0-2.89,1.356-2.89,3.201c0.059,1.88,0.986,3.236,2.951,3.236c1.381,0,2.355-0.737,2.63-2.094h-1
		C180.496,97.329,179.914,97.734,179.08,97.734z M178.926,93.082c1,0,1.726,0.773,1.773,1.736h-3.534
		C177.237,93.879,177.867,93.082,178.926,93.082z"/>
	<path fill="#CCCCCC" d="M121.391,85.059c-4.522,0-8.346,3.032-9.559,7.163h2.238c1.131-2.942,3.985-5.037,7.322-5.037
		c3.334,0,6.19,2.095,7.319,5.037h2.239C129.739,88.089,125.913,85.059,121.391,85.059z"/>
	<path fill="#CCCCCC" d="M122.37,104.938c3.999-0.393,7.31-3.161,8.505-6.869h-2.213
		C127.602,101.007,125.166,103.721,122.37,104.938z"/>
	<path fill="#CCCCCC" d="M125.392,92.222h2.203c-1.104-3.057-4.059-4.187-5.977-4.187C123.34,88.912,124.694,90.406,125.392,92.222z
		"/>
	<path fill="#CCCCCC" d="M117.845,102.011c-1.64-0.838-2.948-2.236-3.67-3.942h-2.229
		C113.221,101.267,116.521,102.011,117.845,102.011z"/>
	<path fill="#CCCCCC" d="M117.093,85.108c-4.887,0.479-8.746,4.503-8.971,9.459h2.129C110.453,91.646,112.727,87.007,117.093,85.108
		z"/>
	<path fill="#CCCCCC" d="M127.559,98.069h-2.268c-1.192,2.811-3.978,4.792-7.218,4.792c-4.147,0-7.55-3.236-7.819-7.32h-2.129
		c0.271,5.255,4.628,9.448,9.948,9.448C122.503,104.988,126.268,102.08,127.559,98.069z"/>
	<rect x="111.737" y="93.144" fill="#CCCCCC" width="0.991" height="3.981"/>
	<path fill="#CCCCCC" d="M113.22,94.189v2.936h0.868v-1.591c0-0.366,0-0.732,0.455-0.732c0.171,0,0.322,0.069,0.39,0.226
		c0.035,0.078,0.04,0.172,0.04,0.438v1.658h0.862v-2.013c0-0.457-0.08-0.722-0.39-0.884c-0.152-0.085-0.35-0.119-0.525-0.119
		c-0.207,0-0.399,0.05-0.534,0.107c-0.152,0.073-0.209,0.138-0.294,0.231v-0.259H113.22z"/>
	<path fill="#CCCCCC" d="M117.925,94.779v-0.528h-0.57v-0.919h-0.862v0.911h-0.429v0.532h0.429v1.417
		c0,0.284,0.005,0.49,0.124,0.667c0.187,0.271,0.513,0.287,0.813,0.287c0.157,0,0.269-0.016,0.456-0.046v-0.676l-0.311,0.01
		c-0.231,0-0.231-0.15-0.226-0.329v-1.328H117.925z"/>
	<path fill="#CCCCCC" d="M120.665,94.51c-0.377-0.406-0.884-0.422-1.06-0.422c-1.16,0-1.51,0.911-1.51,1.623
		c0,0.963,0.615,1.522,1.489,1.522c0.473,0,0.856-0.182,1.111-0.416c0.151-0.143,0.252-0.29,0.354-0.441l-0.654-0.332
		c-0.107,0.207-0.27,0.518-0.743,0.518c-0.468,0-0.678-0.367-0.673-0.734h2.103C121.071,95.496,121.047,94.92,120.665,94.51z
		 M118.986,95.287c0.028-0.123,0.055-0.259,0.173-0.39c0.084-0.09,0.231-0.193,0.44-0.193c0.151,0,0.315,0.057,0.423,0.166
		c0.124,0.128,0.146,0.293,0.162,0.416H118.986z"/>
	<path fill="#CCCCCC" d="M121.358,97.125h0.868v-1.658c0-0.372,0.124-0.432,0.54-0.509l0.288-0.043v-0.766
		c-0.451,0.044-0.659,0.175-0.851,0.338v-0.31h-0.846V97.125z"/>
	<path fill="#CCCCCC" d="M124.303,96.489h1.466l0.198,0.637h1.059l-1.465-3.981h-1.038l-1.476,3.981h1.06L124.303,96.489z
		 M124.861,94.705c0.056-0.201,0.112-0.41,0.164-0.613l0.518,1.679h-1.009C124.624,95.474,124.776,95.007,124.861,94.705z"/>
	<path fill="#CCCCCC" d="M128.322,97.222c0.332,0,0.62-0.109,0.845-0.265c0.237-0.171,0.354-0.357,0.462-0.526l-0.653-0.34
		c-0.029,0.087-0.057,0.154-0.131,0.24c-0.179,0.201-0.394,0.201-0.438,0.201c-0.463,0-0.653-0.49-0.653-0.878
		c0-0.356,0.157-0.892,0.625-0.892c0.135,0,0.243,0.046,0.326,0.101c0.14,0.102,0.198,0.203,0.249,0.31l0.642-0.366
		c-0.373-0.615-0.93-0.704-1.258-0.704c-0.98,0-1.475,0.722-1.475,1.578C126.862,96.881,127.757,97.222,128.322,97.222z"/>
	<path fill="#CCCCCC" d="M131.015,93.332h-0.862v0.911h-0.429v0.532h0.429v1.417c0,0.284,0.005,0.49,0.126,0.667
		c0.185,0.271,0.511,0.287,0.81,0.287c0.158,0,0.271-0.016,0.456-0.046v-0.676l-0.309,0.01c-0.23,0-0.23-0.15-0.226-0.329v-1.328
		h0.576v-0.528h-0.57V93.332z"/>
	<rect x="131.939" y="94.177" fill="#CCCCCC" width="0.856" height="2.948"/>
	<rect x="131.939" y="93.311" fill="#CCCCCC" width="0.856" height="0.526"/>
	<path fill="#CCCCCC" d="M134.763,94.092c-1.129-0.063-1.697,0.654-1.697,1.554c0,1.089,0.756,1.563,1.583,1.563
		c1.15,0,1.579-0.818,1.579-1.563C136.229,95.112,135.964,94.16,134.763,94.092z M134.65,96.522c-0.484,0-0.711-0.413-0.711-0.881
		c0-0.203,0.04-0.404,0.148-0.575c0.118-0.187,0.265-0.269,0.514-0.288c0.122-0.009,0.326-0.003,0.506,0.165
		c0.165,0.157,0.244,0.412,0.244,0.738C135.351,96.144,135.118,96.522,134.65,96.522z"/>
	<path fill="#CCCCCC" d="M138.691,94.229c-0.151-0.085-0.348-0.119-0.523-0.119c-0.209,0-0.399,0.05-0.534,0.107
		c-0.154,0.073-0.21,0.138-0.295,0.231v-0.259h-0.873v2.936h0.868v-1.591c0-0.366,0-0.732,0.457-0.732
		c0.168,0,0.321,0.069,0.388,0.226c0.034,0.078,0.039,0.172,0.039,0.438v1.658h0.863v-2.013
		C139.081,94.655,139.003,94.391,138.691,94.229z"/>
	<path fill="#CCCCCC" d="M121.058,17.992c0.151,0.145,0.298,0.295,0.458,0.427c0.354,0.284,0.512,0.49,0.587,0.979
		c0.092,0.616,0.042,0.538,0.706,0.573c0.394,1.212,0.434,1.908,1.922,2.139c0.618,0.096,1.311,0.05,1.87,0.37
		c0.335,0.202,0.635,0.461,0.973,0.663c0.384,0.23,0.588,0.479,0.898,0.801c0.306,0.328,0.87,0.509,1.121,0.856
		c0.539,0.695-0.659,1.655-0.759,2.391c-0.178,1.335,1.408,2.347,2.312,3.07c1.197,0.945,0.854,2.235,0.677,3.595
		c-0.259,2.031-0.156,4.393,1.558,5.735c-7.193-1.581-12.659-7.764-13.13-15.314h-6.725c0.52,12.401,10.733,22.296,23.263,22.296
		c5.947,0,11.37-2.233,15.485-5.902l19.55,14.778l5.973-7.891l-19.698-14.892c1.139-2.585,1.827-5.414,1.952-8.39h-6.308v-1.895
		h0.003c0.001,0.028,0.006,0.054,0.008,0.082h6.301C159.62,9.983,149.373,0,136.788,0c-12.587,0-22.834,9.983-23.267,22.463h6.711
		C120.301,20.906,120.593,19.41,121.058,17.992z M145.719,23.948c0.833,1.309,1.671,1.831,3.148,1.144
		c1.378-0.641,2.486-0.687,2.546,1.008c0.042,1.051,1.305,1.299,1.583,2.099c-2.124,6.83-8.476,11.797-16.004,11.797
		c-0.686,0-1.358-0.055-2.023-0.135c0.047-0.157,0.031-0.377-0.089-0.686c-0.24-0.632-0.584-2.158-0.218-2.773
		c0.11-0.179,0.342-0.324,0.529-0.413c-0.063,0.06-0.121,0.141-0.195,0.212c0.123-0.059,0.218-0.108,0.324-0.179
		c0-0.011-0.008-0.025-0.015-0.025c0.642-0.611,1.694-1.154,1.973-2.026c0.107-0.348,0.017-0.724,0.219-1.052
		c0.265-0.432,0.848-0.6,1.27-0.836c0.428-0.23,0.833-0.459,0.862-0.984c0.027-0.421-0.275-0.806-0.207-1.241
		c0.135-0.792,1.619-1.339,1.059-2.203c-0.542-0.834-2.009-0.824-2.846-1.17c-0.731-0.304-1.153-0.979-1.824-1.374
		c-0.805-0.473-1.625-0.794-2.398-1.339c-0.803-0.559-1.774-0.998-2.749-0.595c-0.648,0.271-1.642,1.159-2.299,0.354
		c-0.248-0.313-0.052-0.682-0.209-0.998c-0.159-0.32-0.828-0.245-0.925-0.515c-0.135-0.335,0.634-0.58,0.611-0.676
		c-0.282-0.942-1.455,0.05-2.016-0.012c-0.558-0.067-1.08-0.791-1.092-1.333c-0.036-1.541,2.108-2.263,3.33-1.864
		c0.786,0.259,0.97,0.803,0.745,1.521c0.717,0.047,1.129-0.454,1.293-1.117c0.218-0.874,0.497-1.242,1.183-1.919
		c-0.011,0.035-0.042,0.053-0.055,0.082c0,0.006,0.082-0.04,0.1-0.045c0.328-0.265,0.683-0.502,0.978-0.832
		c0.352-0.4,0.542-0.821,1.055-1.073c0.575-0.282,2.433,0.068,2.177-1.15c-0.181-0.019-0.276-0.101-0.379-0.232
		c0.451-0.479,1.493-0.018,1.621,0.559c0.509,0.037,0.856-0.464,0.849-0.931c-0.019-0.568-0.53-0.748-0.955-1.036
		c-0.562-0.384-1.245-1.536-1.985-1.414c-1.176,0.196-1.614,1.944-2.968,1.51c-0.953-0.3-1.433-1.437-0.237-1.819
		c0.604-0.198,1.927-0.293,1.499-1.297c-0.507-1.177-1.649,0.292-2.33,0.422c-0.604,0.109-1.333,0.098-1.943,0.073
		c-0.487-0.022-0.632-0.076-0.793-0.332c0.227-0.146,0.466-0.276,0.7-0.412c0.274,0.257,0.795,0.283,1.169,0.229
		c0.277-0.044,0.688-0.171,0.564-0.537c-0.11-0.323-0.427-0.17-0.65-0.266c1.594-0.771,3.326-1.297,5.153-1.529
		c-0.148,0.71-1.473,1.216-0.487,1.932c0.562,0.403,0.765,0.371,1.062,1.009c0.175,0.382,0.42,1.016,0.933,1.036
		c0.516,0.013,0.824-0.611,0.824-1.04c0-0.585-0.387-0.959-0.904-1.177c-0.348-0.142-0.644-0.087-0.689-0.501
		c-0.029-0.325,0.401-0.942,0.698-1.06c0.445-0.18,0.728,0.154,1.068,0.381c0.401,0.261,0.636,0.311,1.111,0.279
		c0.919-0.068,1.775,0.187,1.467,1.299c-0.151,0.554-0.873,2.367,0.491,2.054c0.524-0.12,0.887-0.729,1.289-1.036
		c0.479-0.361,0.977-0.479,1.554-0.56c0.58-0.088,1.424-0.205,2.041-0.539c1.239,0.71,2.383,1.563,3.397,2.554
		c-0.337,0.088-0.716,0.113-1.014,0.277c-0.426,0.234-1.079,1.065-0.677,1.549c0.437,0.533,1.522-0.5,1.722,0.217
		c0.07,0.231-0.266,0.49-0.167,0.764c0.127,0.337,0.842,0.397,0.529,0.882c-0.218,0.343-1.148,0.271-1.511,0.595
		c-1.231,1.092,0.975,1.189,1.678,0.85c0.658-0.313,0.265-0.85,0.703-1.207c0.48-0.396,1.244-0.28,1.739,0.047
		c0.423,0.774,0.797,1.579,1.095,2.421c-0.499,0.056-0.802-0.108-1.26-0.64c-0.44-0.51-0.773-0.37-1.336-0.076
		c-0.654,0.343-1.177,0.576-1.929,0.645c-0.647,0.059-0.854,0.242-1.209,0.798c-0.628,1.005-1.928,1.865-2.151,3.067
		C144.756,22.318,145.242,23.207,145.719,23.948z"/>
	<path fill="#CCCCCC" d="M135.361,35.992c-0.013,0.004-0.024,0.018-0.04,0.029c0,0.002,0.002,0.012,0,0.015
		C135.323,36.033,135.354,35.996,135.361,35.992z"/>
	<path fill="#CCCCCC" d="M131.338,16.65c0-0.001-0.004,0.001-0.007,0.002c-0.038,0.031-0.079,0.061-0.115,0.093
		C131.255,16.703,131.31,16.683,131.338,16.65z"/>
	<path fill="#CCCCCC" d="M128.596,20.363h0.054c0.127,0.498,0.164,0.6,0.793,0.555c0.339-0.023,0.973-0.12,0.932-0.596
		C130.027,20.188,128.883,20.138,128.596,20.363z"/>
</g>
</svg>
