<?xml version="1.0" encoding="utf-8"?>
<!-- Generator: Adobe Illustrator 17.1.0, SVG Export Plug-In . SVG Version: 6.00 Build 0)  -->
<!DOCTYPE svg PUBLIC "-//W3C//DTD SVG 1.1//EN" "http://www.w3.org/Graphics/SVG/1.1/DTD/svg11.dtd">
<svg version="1.1" id="Capa_1" xmlns="http://www.w3.org/2000/svg" xmlns:xlink="http://www.w3.org/1999/xlink" x="0px" y="0px"
	 viewBox="0 0 960 560" enable-background="new 0 0 960 560" xml:space="preserve">
<g>
	<polygon fill="#999999" points="54.42,151.401 54.913,151.401 127.391,268.057 165.707,268.057 165.707,93.808 129.834,93.808 
		129.834,210.707 129.346,210.707 56.619,93.808 18.546,93.808 18.546,268.057 54.42,268.057 	"/>
	<path fill="#999999" d="M268.586,272.206c16.84,0,34.411-6.586,47.833-23.914l3.905,19.765h24.407v-94.199h-73.221v28.556h38.56
		c-2.199,24.163-16.596,37.58-41.491,37.58c-34.411,0-47.346-29.287-47.346-58.325c0-30.506,12.935-59.793,47.346-59.793
		c18.059,0,32.456,10.004,36.849,29.287h36.605c-4.149-39.535-37.829-61.499-73.459-61.499c-53.932,0-85.657,40.266-85.657,92.005
		C182.924,231.94,214.649,272.206,268.586,272.206z"/>
	<path fill="#999999" d="M529.816,181.669c0-51.739-31.724-92.005-85.657-92.005s-85.662,40.266-85.662,92.005
		c0,50.271,31.724,90.537,85.662,90.537C498.092,272.206,529.816,231.94,529.816,181.669z M396.814,181.669
		c0-30.506,12.935-59.793,47.346-59.793s47.346,29.287,47.346,59.793c0,29.038-12.935,58.325-47.346,58.325
		C409.749,239.988,396.814,210.707,396.814,181.669z"/>
	<path fill="#999999" d="M66.136,294.596L0,468.84h38.804l13.666-38.804h65.161l13.178,38.804h39.779l-65.161-174.244H66.136z
		 M62.474,401.486l22.695-63.936h0.487l21.964,63.936H62.474z"/>
	<rect x="176.725" y="294.596" fill="#999999" width="34.655" height="28.55"/>
	<rect x="176.725" y="342.673" fill="#999999" width="34.655" height="126.167"/>
	<path fill="#999999" d="M319.561,358.045h-0.487c-7.811-12.447-22.451-18.79-37.336-18.79c-37.092,0-55.888,31.486-55.888,65.404
		c0,34.899,18.546,67.604,56.619,67.604c16.109,0,30.262-5.861,38.316-19.527h0.487v16.109h32.949V294.596h-34.655v63.449H319.561z
		 M291.01,446.145c-21.477,0-30.506-20.745-30.506-40.51c0-20.745,7.811-40.266,30.506-40.266c22.451,0,29.775,19.521,29.775,40.017
		C320.779,426.131,313.949,446.145,291.01,446.145z"/>
	<polygon fill="#999999" points="516.488,414.426 516.001,414.426 475.247,294.596 421.315,294.596 421.315,468.84 457.188,468.84 
		457.188,346.573 457.676,346.573 500.38,468.84 529.911,468.84 572.62,345.36 573.113,345.36 573.113,468.84 608.986,468.84 
		608.986,294.596 555.054,294.596 	"/>
	<path fill="#999999" d="M744.803,375.129c0-30.262-30.262-35.874-55.4-35.874c-28.307,0-57.344,9.766-59.3,42.222h34.649
		c1.224-13.671,9.766-19.034,22.944-19.034c12.203,0,22.451,2.194,22.451,17.084c0,14.153-19.765,13.417-40.992,16.591
		c-21.482,2.93-42.953,9.766-42.953,38.316c0,25.864,19.034,37.829,42.953,37.829c15.366,0,31.475-4.155,42.46-15.621
		c0.244,4.155,1.213,8.298,2.437,12.203h35.142c-3.174-5.118-4.387-16.591-4.387-28.063v-65.654H744.803z M710.143,420.038
		c0,7.567-0.975,29.038-28.063,29.038c-11.223,0-21.233-3.174-21.233-16.109c0-12.685,9.766-16.353,20.507-18.546
		c10.736-1.955,22.933-2.199,28.794-7.329v12.946H710.143z"/>
	<path fill="#999999" d="M835.65,339.256c-15.621,0-29.287,6.104-37.58,19.527h-0.493v-16.109h-32.943v170.582h34.649v-60.031h0.493
		c8.298,12.447,22.695,19.039,37.829,19.039c36.848,0,55.395-31.486,55.395-65.166C893,371.224,875.185,339.256,835.65,339.256z
		 M828.333,446.145c-22.457,0-30.262-19.521-30.262-40.017c0-20.507,7.318-40.754,30.013-40.754
		c22.202,0,30.262,20.745,30.262,40.754C858.345,426.624,851.028,446.145,828.333,446.145z"/>
	<path fill="#999999" d="M853.604,223.093c6.149-13.954,9.905-29.204,10.575-45.268h-34.057v-10.231h0.017
		c0.006,0.15,0.033,0.294,0.039,0.443h34.023c-2.343-67.393-57.666-121.292-125.618-121.292
		c-67.958,0-123.292,53.899-125.63,121.287h36.234c0.371-8.403,1.95-16.48,4.459-24.141c0.814,0.787,1.606,1.595,2.471,2.304
		c1.911,1.534,2.764,2.648,3.169,5.285c0.499,3.324,0.227,2.903,3.811,3.091c2.127,6.548,2.343,10.303,10.381,11.55
		c3.34,0.521,7.079,0.271,10.098,2c1.811,1.091,3.429,2.487,5.257,3.578c2.077,1.241,3.174,2.587,4.847,4.321
		c1.651,1.773,4.697,2.753,6.055,4.625c2.908,3.75-3.562,8.941-4.094,12.907c-0.958,7.207,7.6,12.674,12.48,16.574
		c6.465,5.102,4.614,12.07,3.656,19.41c-1.396,10.968-0.842,23.714,8.409,30.966c-38.837-8.536-68.351-41.923-70.894-82.688H612.98
		c2.809,66.961,57.948,120.384,125.607,120.384c32.107,0,61.305-12.131,83.518-31.935l105.649,79.862l32.251-42.604L853.604,223.093
		z M728.279,258.263c-1.296-3.412-3.152-11.655-1.174-14.973c0.593-0.964,1.845-1.75,2.858-2.232
		c-0.343,0.321-0.654,0.764-1.053,1.141c0.665-0.316,1.18-0.582,1.75-0.964c0-0.061-0.044-0.133-0.078-0.133
		c3.468-3.296,9.151-6.232,10.652-10.94c0.576-1.878,0.089-3.911,1.185-5.678c1.429-2.332,4.576-3.241,6.852-4.515
		c2.31-1.241,4.498-2.476,4.659-5.312c0.144-2.277-1.485-4.354-1.119-6.703c0.726-4.276,8.741-7.235,5.722-11.893
		c-2.93-4.504-10.846-4.448-15.367-6.315c-3.944-1.64-6.226-5.285-9.849-7.417c-4.348-2.554-8.774-4.288-12.946-7.229
		c-4.332-3.019-9.578-5.39-14.84-3.213c-3.501,1.462-8.869,6.26-12.414,1.911c-1.341-1.69-0.277-3.678-1.125-5.39
		c-0.859-1.728-4.47-1.324-4.991-2.781c-0.731-1.811,3.423-3.13,3.296-3.651c-1.518-5.091-7.86,0.271-10.885-0.061
		c-3.013-0.36-5.833-4.271-5.894-7.201c-0.194-8.32,11.378-12.22,17.981-10.06c4.243,1.401,5.235,4.332,4.022,8.209
		c3.872,0.255,6.099-2.454,6.98-6.032c1.174-4.72,2.681-6.703,6.387-10.364c-0.061,0.188-0.227,0.288-0.299,0.443
		c0,0.033,0.443-0.216,0.543-0.244c1.773-1.429,3.689-2.709,5.279-4.493c1.9-2.16,2.925-4.432,5.695-5.789
		c3.102-1.523,13.14,0.366,11.755-6.21c-0.975-0.105-1.49-0.543-2.044-1.252c2.437-2.587,8.06-0.094,8.752,3.019
		c2.748,0.199,4.625-2.504,4.587-5.03c-0.105-3.063-2.864-4.038-5.157-5.595c-3.036-2.077-6.725-8.298-10.719-7.633
		c-6.348,1.058-8.714,10.492-16.026,8.154c-5.146-1.618-7.739-7.761-1.28-9.821c3.257-1.069,10.403-1.579,8.093-7.002
		c-2.737-6.354-8.902,1.573-12.58,2.277c-3.257,0.593-7.201,0.526-10.492,0.399c-2.626-0.122-3.412-0.41-4.282-1.789
		c1.23-0.792,2.515-1.49,3.783-2.221c1.479,1.385,4.293,1.523,6.309,1.235c1.496-0.238,3.717-0.925,3.047-2.903
		c-0.593-1.745-2.304-0.92-3.507-1.435c8.608-4.166,17.959-7.002,27.825-8.254c-0.798,3.833-7.949,6.564-2.631,10.431
		c3.03,2.177,4.127,2.005,5.733,5.451c0.947,2.061,2.266,5.484,5.035,5.595c2.786,0.072,4.448-3.296,4.448-5.617
		c0-3.157-2.094-5.179-4.88-6.354c-1.883-0.764-3.479-0.471-3.717-2.709c-0.155-1.756,2.166-5.085,3.767-5.722
		c2.404-0.969,3.927,0.836,5.767,2.055c2.166,1.407,3.434,1.678,5.999,1.507c4.963-0.371,9.583,1.014,7.916,7.013
		c-0.814,2.991-4.714,12.78,2.653,11.09c2.831-0.648,4.792-3.939,6.958-5.595c2.581-1.95,5.274-2.587,8.392-3.025
		c3.13-0.476,7.683-1.108,11.018-2.914c6.686,3.833,12.868,8.442,18.341,13.793c-1.822,0.476-3.867,0.615-5.473,1.496
		c-2.299,1.263-5.828,5.75-3.656,8.365c2.36,2.875,8.221-2.698,9.295,1.169c0.382,1.246-1.435,2.642-0.903,4.121
		c0.687,1.817,4.542,2.144,2.858,4.764c-1.174,1.85-6.193,1.462-8.16,3.213c-6.647,5.894,5.263,6.42,9.057,4.587
		c3.551-1.69,1.435-4.587,3.795-6.52c2.592-2.138,6.714-1.512,9.389,0.255c2.282,4.182,4.299,8.525,5.911,13.073
		c-2.698,0.299-4.332-0.582-6.802-3.457c-2.371-2.753-4.171-1.994-7.212-0.41c-3.534,1.856-6.354,3.113-10.414,3.479
		c-3.495,0.316-4.614,1.307-6.525,4.304c-3.396,5.429-10.409,10.071-11.616,16.557c-0.903,4.936,1.717,9.738,4.293,13.738
		c4.498,7.063,9.024,9.888,16.995,6.176c7.44-3.462,13.422-3.706,13.749,5.44c0.227,5.672,7.046,7.013,8.547,11.328
		c-11.472,36.882-45.762,63.698-86.41,63.698c-3.706,0-7.334-0.294-10.924-0.726C729.016,261.116,728.932,259.931,728.279,258.263z"
		/>
	<path fill="#999999" d="M730.877,241.085c-0.066,0.022-0.127,0.094-0.216,0.155c0,0.011,0.011,0.061,0,0.078
		C730.672,241.301,730.838,241.102,730.877,241.085z"/>
	<path fill="#999999" d="M709.156,136.644c0-0.006-0.017,0.006-0.033,0.011c-0.205,0.166-0.427,0.327-0.626,0.499
		C708.708,136.932,709.001,136.821,709.156,136.644z"/>
	<path fill="#999999" d="M694.349,156.697h0.288c0.687,2.687,0.886,3.241,4.282,2.997c1.828-0.127,5.251-0.648,5.03-3.218
		C702.077,155.744,695.901,155.478,694.349,156.697z"/>
</g>
</svg>
