<?xml version="1.0" encoding="utf-8"?>
<!-- Generator: Adobe Illustrator 17.1.0, SVG Export Plug-In . SVG Version: 6.00 Build 0)  -->
<!DOCTYPE svg PUBLIC "-//W3C//DTD SVG 1.1//EN" "http://www.w3.org/Graphics/SVG/1.1/DTD/svg11.dtd">
<svg version="1.1" id="Capa_1" xmlns="http://www.w3.org/2000/svg" xmlns:xlink="http://www.w3.org/1999/xlink" x="0px" y="0px"
	 viewBox="0 0 379.64 196.388" enable-background="new 0 0 379.64 196.388" xml:space="preserve">
<g>
	<path fill="#CCCCCC" d="M360.73,35.899c0.391,1.127,1.715,1.243,2.738,1.306c-0.096-0.919-0.311-1.809-0.645-2.67
		c2.5-0.377,0.962,1.34,3.495-1.297c-1.734-1.147-5.92-4.521-5.313-0.772c-1.918-0.331-0.449-3.095-2.211-3.097
		c-1.264-0.001-2.371-1.568-3.705-1.739c-1.231-3.528-11.121-6.142-14.21-4.786c0.04,0.864,1.213,1.198,1.023,2.123
		c-0.398,1.937-3.172,0.072-3.571-0.922c-0.267-0.666-6.991-0.981-7.967-0.077c-0.716-0.19-1.619-1.012-1.845-1.713
		c1.066-1.936-2.238-2.11-3.66-2.136c-3.879-0.073-5.29,0.488-9.004-1.118c1.657-1.105-0.74-1.458-1.779-1.406
		c0.042-0.002-4.605,3.749-1.478,0.169c-3.562,0.429-1.459,0.331-1.079-0.423c-2.928-0.672-4.933,0.326-7.218,0.326
		c1.787,0,0.487,2.602-1.721,1.868c-2.834-0.942-0.767-0.117-2.067,0.682c-1.668-0.936-1.79,0.221-3.031-1.567
		c-0.45,0.699-0.544,1.441-0.282,2.225c-1.586,1.156-5.602-4.825-6.309-2.2c-2.956-0.051,3.243-3.15,2.109-2.528
		c-1.183-1.233-8.197-1.436-5.692,0.221c-2.432,1.576-3.569-0.201-4.974-0.606c-1.734-0.499-3.74,1.285-4.762,1.152
		c0.185-0.742,0.015-1.337-0.509-1.787c-1.177,0.772-2.342-0.518-3.406,0.61c0.485,0.077,0.955,0.208,1.41,0.394
		c-0.019,0.054-5.766,1.871-6.098,1.695c0.636-2.069,3.636-2.814,5.422-3.619c4.913-2.215,0.75-1.062,1.379-3.159
		c3.347-0.191-0.247-2.365-1.893-1.981c-1.054,0.246-4.193,0.622-5.119,0.551c-0.01,0.103-1.228-2.657-1.441-2.786
		c-1.886-1.139-1.686,2.544-1.015,3.418c-1.877-0.141-3.847-1.084-2.663,1.286c0.123-0.004-3.544-0.494-3.764-0.423
		c-1.07,0.344-2.726,1.52-3.76,1.601c-1.53,0.12-1.854,1.035-3.164,1.329c-2.057,0.462,1.804,3.428-1.452,3.768
		c0.258-0.236,0.384-0.533,0.378-0.893c-1.25-1.156-7.458,2.406-3.786,3.54c1.563,0.483,3.804,3.636,2.703,5.388
		c-1.019,1.622-1.581-3.138-1.314-3.906c-2.221,0-2.497-1.683-4.587-1.861c-0.622,2.986-1.853-0.256-2.324,1.557
		c-0.517,1.992,3.667,0.01,3.167,2.12c-1.497-0.169-4.109-0.677-3.46-2.54c0.302-0.866,0.341-1.443-0.711-1.443
		c0.404,1.64-1.134,1.406-1.152,2.74c-0.021,1.596,1.948,1.201,0.713,2.774c0.393,2.84,4.888,1.959,6.156,5.538
		c-2.477,1.09-1.747-3.439-3.883-3.04c-1.334,0.25-1.849,8.158-5.812,4.636c2.49-0.935,2.88-1.537,3.842-4.323
		c-2.488-2.144-0.511-5.676-1.975-7.588c-2.486-3.247-4.854,3.383-4.738,3.532c0.767,0.985-0.636,1.368-0.013,2.38
		c1.207-0.454,2.047,1.872,1.868,2.664c-2.053-0.976-3.718-1.594-5.727-2.039c-2.408-0.534-0.684,1.534-1.853,1.974
		c0.117-0.044-3.373,0.046-3.341,0.054c-1.277-0.335-3.775,3.369-1.923-0.694c-1.212-0.198-4.827,2.407-5.342,3.203
		c-1.738,2.682-3.506-0.43-1.297-0.702c-0.552-1.335-1.336-1.399-2.675-0.929c0.166,1.228,1.314,3.138,0.758,4.277
		c-0.674-0.502-4.424-1.403-3.322,1.132c1.295,2.98-2.598,0.397-2.862,1.179c0.541,0.502,1.042,1.04,1.503,1.614
		c-4.177,1.915-2.631-4.467-6.244-4.467c0.086,0-0.737-3.077,1.164-2.614c-0.06,1.956-1.112,1.565,1.44,2.663
		c1.116,0.481,4.561,1.546,5.317-0.041c2.074-4.358-8.93-5.466-10.607-6.051c0.349-0.295,0.682-0.607,1-0.935
		c-0.406-0.75-2.786-0.392-3.05,0.053c-0.569-0.461-1.053-0.562-1.895-0.756c0.051,0.325-0.5,1.637-1.079,1.697
		c-1.181-1.445-6.164,1.757-5.56,2.813c-0.938,0.633-3.311,2.683-2.435,4.258c0.164,0.295-2.844,1.742-2.261,2.823
		c0.429,0.794,1.379-1.254,2.009-0.094c-0.399-0.735-2.865,1.833-3.015,2.021c-0.498-0.004-0.98-0.098-1.444-0.28
		c-0.113,1.908-1.288,1.247-2.219,2.28c0.341,0.13,0.567,0.369,0.678,0.717c-2.739,0.178-1.358,11.859,3.504,4.596
		c1.347,1.474,2.119,5.038,2.503,7.011c2.07,0,4.36-5.086,4.276-6.571c-0.456-0.011-0.871-0.148-1.245-0.41
		c0.524-0.611,1.38,0.258,1.876-0.427c0.122-0.168-1.602-3.967-1.583-4.524c0.075-2.141,3.359-2.073,3.442-4.485
		c0.08-2.339,2.768-2.967,3.527-0.492c-1.45,1.372-5.779,6.495-2.267,8.255c0.603,0.302,7.287-2.115,6.829,0.437
		c-1.519,0.452-3.009,0.398-4.385,0.79c-2.943,0.838,0.155,2.44-0.742,4.425c-0.615-0.092-1.413-1.146-1.786-1.167
		c-0.663,0.88-1.437,3.84-1.482,5c0.033-0.83-5.29,1.489-5.835,1.247c-1.583-0.704-4.305,0.346-3.744-2.656
		c2.043-1.665,0.279-1.942-1.17-1.233c-2.319,1.135,2.676,4.513-1.999,5.125c-1.235,0.162-4.279,3.622-4.681,4.793
		c-0.769,2.24-1.913,0.726-2.925,1.06c0.431,2.682-2.702,0.045-2.315,2.533c2.795,0.951,5.018,4.401,2.175,6.974
		c-2.171,0-7.435-1.676-6.712,1.827c0.453,2.194,0.118,5.122-0.057,7.228c1.92-0.323,6.806,2.352,8.019-1.177
		c1.007-2.93,2.842-4.842,3.63-7.405c0.317-1.033,6.434-2.233,7.174-0.648c1.482,3.17,6.305,2.876,5.439,7.051
		c1.621-0.162,1.208-1.537,0.955-2.338c-0.392-1.241,0.912-0.421,1.295-0.719c-0.802-1.615-3.403-2.466-4.47-3.971
		c-3.026-4.271-1.459-2.666,0.897-2.666c0.47,1.147,1.787,3.191,3.269,3.34c1.929,0.195,1.398,1.518,1.825,2.802
		c0.8,2.407,2.046,2.091,3.694,3.084c-0.038,0.692-1.568,0.209-1.954,0.449c0.211,1.038,0.838,1.622,1.882,1.753
		c-0.035-0.402,0.264-5.641-0.58-5.306c0.303,0.25,0.652,0.372,1.045,0.365c-0.371-2.307,4.454,0.803,4.477-1.558
		c-2.304-2.202,2.367-8.911,2.891-8.427c-0.202-0.187,1.042,1.48,1.011,1.317c-0.466,0.191-0.695,0.538-0.686,1.042
		c1.696,0.324-0.028,1.078,1.022,1.347c0.792,0.203,1.693-0.982,2.66-0.972c-0.057-0.897-1.536-1.155-2.446-1.784
		c1.291-0.67,3.67-2.413,5.122-1.97c-0.623,1.207-2.859,2.133-1.75,3.989c1.026,1.717,3.746,2.101,5.028,3.969
		c0.968,1.411-3.475,1.192-3.779,1.176c-2.914-0.146-3.067-0.954-6.107,0.132c-2.696,0.963-6.296,1.609-3.982,4.921
		c0.729,1.042,1.656,3.585,3.681,1.594c0.102-0.1,5.796-0.133,5.631-0.326c-0.367,1.542-0.156,6.907-2.221,7.402
		c-1.497,0.359-5.562,0.001-7.23-0.171c-1.974-0.204-3.158-1.778-4.82-1.469c-1.271,0.236-1.332,0.671-1.399,1.868
		c-0.121,2.227-2.318,0.238-3.132,0.231c-0.304-0.003-5.277-2.351-5.562-2.556c-1.347-0.967,0.062-5.241-2.367-5.259
		c-2.764-0.02-7.428,0.482-9.898,1.965c-1.656,0.994-3.046,1.336-5.138,0.674c-0.964,1.096-0.945,2.176-2.411,2.886
		c-2.533,1.227-0.532,4.383-2.328,5.977c-1.754,1.557-5.594,4.018-5.685,6.871c-0.092,2.878-1.751,3.557-0.001,6.218
		c0.455,0.692-0.14,3.651-0.926,4.034c-0.638,0.311,0.388,2.095,0.386,2.72c-0.011,2.778,8.493,10.53,10.872,9.414
		c1.357-0.636,2.638-1.472,4.19-0.856c1.618,0.642,2.671-0.862,4.25-1.321c2.846-0.829,4.509,1.227,7.195,1.381
		c2.011,0.115,2.121,2.25,1.792,3.703c-0.91,4.028,0.048,3.707,2.293,6.857c1.209,1.697,0.982,3.979,2.018,5.573
		c1.775,2.733-1.931,4.859-1.519,7.875c0.246,1.798,0.722,3.396,2.115,4.903c2.36,2.555,1.624,7.654,4.248,10.655
		c0.863,0.987-0.358,4.791,2.803,4.28c2.203-1.471,5.51-0.445,7.586-1.952c1.747-1.269,3.441-2.987,4.762-4.702
		c1.126-1.463,1.169-4.46,2.845-4.906c3.987-1.061-1.032-6.412,2.337-7.395c2.299-0.67,4.593-3.321,4.829-5.3
		c0.561-4.711-4.777-10.112,0.607-13.989c4.039-2.908,9.54-10.22,8.7-15.528c-2.742,0.861-6.549,3.418-8.557,0.778
		c-0.596-0.784,1.24-1.503-0.789-1.829c-0.751-0.121-3.856-2.615-4.004-3.418c-0.196-1.06-8.56-16.752-8.64-16.732
		c0.374,0.613,1.195,2.7,1.871,3.234c-0.308-1.081-0.059-1.745,0.748-1.991c0.162,1.234,0.967,2.986,2.008,3.786
		c1.817,1.394,3.03,6.075,4.51,6.656c1.978,0.776,4.684,10.268,6.592,8.339c1.354-1.37,5.619-2.454,7.371-3.152
		c-0.021-0.747,2.663-2.67,3.34-2.889c1.269-0.411,3.536-4.465,3.234-5.617c-1.052-0.783-2.911-1.423-3.712-2.396
		c-0.03-0.037-0.569-1.882-0.89-2.076c0.671-1.002-5.268,6.101-4.491,2.208c0.223-1.116-0.363-3.511-0.613-0.355
		c-1.438-1.104-4.944-8.925-1.546-6.26c1.653,1.297,3.352,5.036,6.151,3.357c1.055-0.633,1.529,0.625,1.825,1.28
		c1.975,0.614,4.062,0.816,6.109,0.471c3.498-0.59,4.742,1.761,7.893,2.657c-0.173,1.621-2.016-0.208,0.17,1.92
		c2.587,2.519,1.048-0.965,2.92-1.157c-0.565,4.065,3.525,7.416,4.25,11.016c0.75,3.727,3.808,7.113,5.78,2.49
		c-2.79-3.832,4.106-13.197,7.489-13.509c2.105-0.194,4.643,1.899,5.862,4.064c0.382,0.679,0.205,2.934,1.366,2.644
		c2.949-0.736,1.322-1.144,2.965,1.467c0.635,1.01,2.207,7.187,2.388,7.189c2.873,0.034,2.655,7.414,6.955,7.713
		c0-1.606-2.178-5.924-3.849-6.437c-3.132-0.962-2.516-5.027-2.516-7.311c0.868-0.124,4.385,2.543,5.23,3.474
		c0.024,0.026,0.279,2.388,1.191,1.707c1.094-0.818,3.938-2.162,3.686-3.862c-0.549-3.707-2.701-3.959-4.754-6.808
		c-1.244-1.727,0.036-2.286,1.033-3.671c1.424-1.978,2.101,1.066,2.911,1.061c0.462-2.529,4.914-2.293,6.486-3.78
		c1.976-1.867,5.703-8.807,0.642-7.269c0.379-1.691,0.842-0.303,1.902-1.109c0.388-1.458-1.389-2.922-2.5-4.166
		c-2.696-3.018,0.686-2.11,1.383-4.431c-0.331-0.072-6.475,0.595-5.696-2.039c-0.032,0.108,2.498-2.098,2.588-2.201
		c1.597-1.816,1.217,1.36,1.56,2.182c1.472-1.047,3.68-1.893,3.732,0.703c0.027,1.345,2.361,0.657,2.108,1.992
		c-0.722,3.809,1.81,2.168,3.645,2.377c-0.744-2.447-1.064-2.96-2.953-5.003c-1.386-1.497,1.871-1.576,1.198-2.888
		c-0.204-0.397,0.627-3.029,1.494-2.547c2.174,1.207,2.852,0.196,3.86-1.867c0.576-1.178,0.866-2.944,1.732-3.872
		c2.052-2.197-0.106-4.219,0.715-6.914c0.415-1.362-1.443-3.346-2.33-4.164c0.234,0.216-3.512-0.35-3.132-0.392
		c0.092,0.313,0.011,0.56-0.243,0.741c0.063,0.021-1.97-1.597-1.979-1.614c1.641-2.942,6.537-9.544,10.134-7.188
		c-0.345-0.226,2.727-0.263,3.067-0.674c1.399-1.692,2.637,1.063,2.766,1.312c1.026-0.152,3.751,0.02,4.376-0.981
		c-3.642-2.181,4.458-5.195,4.458-4.779c0,6.61,4.751-3.02,5.969-0.374c-2.29,0.293-0.227,2.98-2.24,3.051
		c-1.452,0.051-3.999,4.099-5.314,5.015c-2.76,1.922-0.014,9.047,1.961,11.596c1.578-1.389,1.1-2.493,1.991-4.122
		c0.719-1.316,0.754-0.746,1.977-1.17c-0.24-1.192-0.522-3.131,1.126-2.382c0.472-1.25-1.271-3.4-2.238-3.57
		c0.762-1.213,0.79-2.069,1.121-3.446c0.213-0.889,2.389-0.162,3.474-1.384c0.095,0.446,0.219,0.884,0.37,1.313
		c1.291-0.757,2.325-1.687,3.685-0.345c0.866,0.854,1.916-0.684,2.835-1.281c1.703-1.105,3.286-2.511,5.328-2.895
		c1.225-0.23,1.764,0.969,2.653-0.217c-1.898-2.353-2.499-3.509-5.334-4.237c1.622-0.697,4.031,0.743,4.898-1.391
		c0.466-1.148-0.488-2.632,1.592-2.322c-0.592,0.981-0.432,2.742,1.349,1.996C359.044,33.292,358.712,36.751,360.73,35.899
		C360.989,36.643,360.07,36.178,360.73,35.899z"/>
	<path fill="#CCCCCC" d="M138.491,134.127c-1.504,0.424-4.974-2.239-7.309-2.088c-2.008,0.13-0.861-0.706-2.407-1.342
		c-2.633-1.084-2.607,0.961-4.697,0.706c1.8-1.232,2.269-2.645-0.249-2.645c-1.221,1.755-2.051,2.63-4.149,2.962
		c0.603-1.4,5.951-2.432,4.036-5.179c-0.766-1.099-0.48-2.629-1.948-3.264c-1.957-0.847-3.735-0.475-5.378-1.27
		c-0.871-0.422-4.771-4.375-4.641-4.726c-3.91,0.462-4.584,0.354-7.918-1.238c-0.011,0.144-1.355,3.384-1.488,3.55
		c-1.081-0.997-0.759-2.637,0.156-3.835c-2.7-0.265-4.901,3.567-6.211,5.422c-1.596-3.299-8.994,2.495-6.961-5.006
		c1.545-5.7-2.474-1.312-4.758-3.734c0.73-1.266,2.489-5.299,2.408-6.689c-0.082-1.397-3.882,0.43-3.545,0.318
		c-0.623,0.927,0.027,2.882-1.486,3.249c-8.364,2.028-4.675-5.836-5.135-10.649c-0.548-5.748,8.043-2.387,8.844-4.833
		c0.391-1.197,3.39-0.644,3.762-0.635c1.707,2.299,1.279-1.909,3.027,1.708c0.576,1.192-0.609,4.389,1.395,4.996
		c0.718,0.218-0.066-9.227,1.918-10.278c1.37-0.725,3.034-2.495,4.273-3.508c1.202-0.983-0.584-4.872,0.638-5.093
		c0.076,0.556,0.23,1.089,0.463,1.6c0.696-0.695,1.577-2.342,1.897-3.222c0.936-2.576,2.389-1.843,4.688-3.194
		c-3.356-2.034,6.079-6.104,6.216-5.75c0.234,0.604-2.451,0.911-1.708,2.679c0.065,0.156,4.228-2.032,4.908-2.385
		c-0.277-1.074-3.45-2.511-4.079-3.983c0.58,0.035,1.931-0.67,1.699-1.448c-0.509-1.709-3.308,0.275-4.138,0.385
		c2.486-4.044,4.569-1.694,8.067-2.655c1.056-0.29,4.358-2.186,4.959-3.032c0.379-3.925-0.145-2.277-2.688-2.697
		c0.404-0.568,0.943-0.939,1.617-1.116c-0.92-0.535-1.755-1.178-2.506-1.929c-0.951-1.281-0.021-1.915-0.596-2.984
		c-0.609-1.13-1.179-4.756-2.041-5.215c-1.443,1.6-5.623,5.377-4.945,0.908c0.698-4.599-3.356-3.399-5.92-5.079
		c-1.431-0.938-1.332,3.501-1.331,3.786c-0.263,0.982-0.778,1.801-1.545,2.456c-0.95,1.147,0.554,0.824,1.011,1.971
		c0.835,2.096-0.598,4.822-2.684,5.416c-1.443,0.411-0.251,3.426-0.771,4.639c-1.809,4.22-2.78-3.664-2.758-4.858
		c0.01-0.543-4.425-1.07-5.035-2.533c-0.719-0.701-1.579-1.102-2.581-1.201c-2.263-0.374-1.372-3.016-2.717-2.878
		c-2.354,0.24,1.234-5.179,1.278-5.509c0.344-2.593,4.39-1.594,1.978-4.139c2.873-0.606,3.193,0.025,5.504-2.518
		c-1.091,0.075-1.909-0.352-2.454-1.282c0.543-0.353,2.195,0.743,3.298,0.185c1.157-1.861,0.845-0.82,3.138-1.097
		c-0.066-0.148-0.597-0.914-0.482-1.162c1.484,0.378,3.334,0.891,3.088-1.602c-0.186-1.89,0.815-1.223,0.727-2.857
		c-0.378-0.316-3.555-2.432-3.258-1.11c0.142,0.633-1.888,4.619-2.894,4.377c-0.617-0.926-0.594-5.612-2.304-1.84
		c0.542-0.065-1.652-2.809-1.754-3.149c2.024-0.72-1.075-8.104-3.496-1.602c-0.77,2.069,2.608,1.242,1.321,3.108
		c0.518,0.897-1.353,4.09-2.706,4.239c-0.173-0.374,0.703-1.574,0.475-2.012c-2.079-1.649-1.688,0.421-3.749,0.354
		c-2.004-0.065-6.951-2.533-7.825-1.447c0.627-0.029,1.252-0.079,1.876-0.15c-0.393,1.382-1.775,0.284-2.241,1.294
		c-0.426,0.924,0.966,1.506-0.361,2.156c-0.697-0.433-0.682-1.292-1.481-2.078c-1.45-1.427-4.301,1.194-5.972-0.23
		c0.199-0.608,0.607-0.998,1.227-1.17c-1.081-1.774-8.043-4.034-9.585-2.206c-0.211-0.292-0.274-1.696-0.747-1.627
		c-1.986,0.288,0.624,1.849-2.305,0.917c-0.139-0.965,0.015-1.562-0.747-2.169c-0.511,1.111-5.954,4.242-6.943,3.521
		c1.009-1.218,3.291-1.184,4.098-2.655c-0.287-0.208-6.632,2.191-6.597,2.266c0.559,1.185-6.828-0.911-7.666-1.332
		c-2.713-1.362-21.504-3.452-20.992-0.886c-1.629,0-4.527-0.005-5.493,1.756c-1.304,2.379-4.531,1.149-5.382,3.5
		c2.737,1.141,3.44,2.486,6.444,2.847c-0.379,0.975-1.324-0.103-1.728,0.601c0.295,0.076,0.505,0.254,0.629,0.536
		c-1.935,0.76-7.297-1.718-8.578,2.083c1.696,0.558,2.005,2.383,4.054,2.116c1.312-0.171,3.685-1.074,4.794-0.985
		c1.006,2.292-3.505,3.637-4.728,3.854c-1.503,0.266-2.348,2.499-2.974,3.616c0.923,1.093,2.56,0.42,2.407,2.062
		c-1.824-0.062-1.951-0.024-0.739,1.9c2.067,0,0.86-0.56,2.289-1.348c1.03,2.37-0.137,2.499,2.603,3.187
		c2.185,0.548,1.753-1.066,3.794-0.255c-1.56,1.915-2.597,3.007-4.438,4.714c-2.049,1.9-4.689,2.556-6.75,4.493
		c0.379,0.134,7.167-2.912,7.844-3.478c1.443-1.207,3.482-2.717,5.091-3.763c0.912-0.593,4.099-1.615,3.783-2.935
		c-2.715-0.95,3.894-5.46,4.301-4.603c-3.476,0.535-2.142,5.257,0.319,2.673c1.74-1.827,2.739-2.859,4.943-1.656
		c2.016,1.1,3.748,1.482,6.139,0.943c1.905,1.393,2.704,1.724,4.309,1.846c2.126,0.162,4.729,6.353,4.962,8.548
		c0.143,1.343,2.181,2.607,2.257,4.506c0.086,2.134,2.707,1.746,3.751,3.596c0.781,1.384,1.479,2.227,0.211,2.227
		c-3.179,0,0.152,2.766-0.869,3.591c-2.171,1.755-3.359,10.699-1.093,12.897c1.392,1.351,0.667,4.729,3.132,5.55
		c2.593,0.863,1.372,4.203,2.972,5.919c2.416,2.591,1.848,7.436,5.668,9.19c0.537-3.347-5.763-8.197-4.348-12.049
		c1.432,0.766,5.309,6.617,5.039,8.036c-0.182,0.954,1.93,2.433,2.447,3.25c0.967,1.528,0.228,3.9,1.421,5.012
		c1.384,1.29,5.695,4.149,7.696,4.351c2.026,0.204,2.531-1.708,4.206,0.498c1.263,1.662,3.138,1.69,5.075,1.891
		c1.007,1.301,2.06,1.99,1.843,3.673c1.286,0.689,2.907,1.677,3.926,2.36c2.632,1.764,2.206-3.704,4.375,0.047
		c1.699,2.938-0.754,4.769-1.138,7.264c-0.291,1.895-2.961,2.07-2.375,4.744c2.005-0.441-0.375,1.833-0.562,2.59
		c-0.461,1.866,2.479,6.534,3.574,8.174c0.937,1.403,1.039,2.997,2.131,4.293c0.989,1.175,3.345,1.748,4.6,2.625
		c3.884,2.715-1.339,18.407-1.702,22.461c-0.135,1.509-1.123,3.522-0.767,5.271c0.14,0.688,2.191,1.41,0.811,3.521
		c1.962,2.819-1.778,2.076-2.229,2.917c0.066-0.123,1.673,0.998,1.673,2.092c-1.601,0.208,0.124,1.891-0.489,2.877
		c-0.424-0.348-0.795-0.746-1.113-1.192c0,1.953,1.485,2.761,3.314,3.346c-0.369,0.165-0.459,0.428-0.27,0.787
		c1.091-0.552,1.642-0.679,0.927,0.792c2.945,0,2.402-5.649,4.923-7.361c2.852-1.938-1.997-2.409-0.412-3.434
		c1.749-1.131,1.616-2.995,3.338-4.156c-1.027,0.043-1.49-0.444-1.39-1.462c1.645-0.258,2.945,0.12,3.151-1.932
		c0.174-1.73,4.435-1.966,5.707-4.197c-1.074-0.696-0.813-1.402-1.851-2.231c0.034-0.803,3.59,0.177,4.501-0.648
		c1.661-1.504,1.702-3.119,2.921-4.902c0.306-0.447,1.652-1.476,2.285-2.453c1.391-2.148-0.092-3.291,2.402-5.144
		c2.344-1.741,4.387-1.529,5.956-3.743c1.859-2.625,3.182-6.852,1.933-10.011C138.853,143.815,141.868,133.176,138.491,134.127
		C137.956,134.278,138.894,134.014,138.491,134.127z"/>
	<path fill="#CCCCCC" d="M155.711,30.245c0.452-0.66,1.054-1.134,1.806-1.421c-1.669-0.215-2.766-0.046-4.392,0.166
		c0.158-0.302,0.396-0.515,0.711-0.64c-0.456-0.011-0.814-0.203-1.075-0.576c-0.098-0.562,2.212-1.031,2.535-1.224
		c-0.229-0.051-2.302-0.227-1.886-1.022c2.297,0.444,3.296,1.867,5.313,2.566c0.663-2.841-2.631-4.142-4.514-5.343
		c0.246-0.402,1.413-0.883,1.957-1.461c0.69,0.192,2.598,1.062,3.449,1.044c2.36-0.049-0.89-1.762-0.842-1.687
		c0.788-1.734,2.751,0.044,2.79-0.613c-0.492-0.204-2.823-1.808-0.818-1.577c0-1.194-1.553-2.152-1.276-2.701
		c0.896-0.303,1.372,0.231,0.526-1.06c0.378,0.201,2.403,1.782,2.725,0.738c0.28-0.905-1.42-0.95-2.069-1.443
		c0.376-1.033,0.907-0.025,1.513-0.329c-0.286-1.851-1.554-0.114-1.204-2.521c0.484-0.369,2.819-1.617,2.555-2.447
		c-0.541,0.183-0.942,0.091-1.203-0.279c0.259-0.498,0.724-0.621,1.395-0.369c0.003-0.288,2.846-1.667,4.221-2.271
		c-0.918-3.026-9.185,1.852-9.459,1.54c0.454-0.345,2.167-2.137,1.791-2.855c-0.663-1.266-2.987,1.362-4.224,1.176
		c0.279-0.406,0.551-0.817,0.816-1.231c-1.925,0.402-3.901,0.554-5.752,1.272c0.15-3.271,6.388-1.224,8.068-2.497
		c-2.004-1.116-1.93-2.191-5.177-1.23c-0.501,0.148-4.391,1.696-4.293,0.802c1.02-0.891,6.583-1.551,6.564-2.05
		c-1.534-0.215-10.152-1.099-9.3,1.357c-1.116,0.213-5.423-2.174-4.982,0.276c1.191,0.038,2.326,0.312,3.405,0.823
		c-1.598-0.131-3.439-0.705-3.439,1.337c-1.196,0.076-6.133-4.492-4.705-0.364c-2.28-0.371-7.665-2.779-7.087,0.68
		c-1.51-0.563-2.685-3.05-3.329,0.123c-1.568-0.396-3.137,0.49-4.663,1.382c0.614,2.071,1.277-0.381,2.286,0.923
		c-1.928,1.026-3.878,0.85-5.942,1.673c-4.036,1.61,3.374,2.683,3.446,2.434c-1.482,0.098-3.03,0.338-4.332,0.786
		c0.894,1.182,2.238,0.381,2.974,1.19c-0.934-0.077-1.582,0.249-1.943,0.977c3.595,2.144,7.312-0.978,9.189,4.516
		c3.074,1.368,0.991,3.574,1.589,5.106c1.241,3.187-0.517,0.105,1.228,0.053c0.312,1.18,1.819,1.718,1.386,3.134
		c-0.784-0.016-1.568-0.051-2.351-0.104c1.367,1.091,4.353,0.592,2.427,2.235c-0.519,0.442-1.505,2.155-2.098,2.875
		c1.895,0.645,0.324,0.111,0.077,1.061c0.541-0.062,0.827,0.143,0.858,0.617c-0.675-0.094-1.267,0.086-1.775,0.541
		c0.572,0.186,1.158,0.284,1.76,0.295c-0.783,0.194-1.431,0.578-1.944,1.153c0.088,0.653,0.31,0.693,0.667,0.119
		c0,2.778-0.611,2.257,1.271,2.39c-0.228,2.426-0.683,3.579,1.213,5.63c-0.315,2.105,2.291,0.949,2.949,1.145
		c-1.126,3.37,5.279,1.025,3.165-2.7c1.777,0.276,3.166-5.789,5.535-6.591c-0.202,0.49-0.154,0.957,0.143,1.4
		c1.624-0.923,3.228-1.341,3.84-3.525c-0.023,0,3.315-1.591,3.392-1.66C152.181,31.101,154.542,31.638,155.711,30.245z"/>
	<path fill="#CCCCCC" d="M347.049,151.483c0.258-2.939-3.694-5.472-4.517-7.512c-0.427-1.06-1.254-1.187-2.136-1.648
		c-1.626-0.849-0.542-1.951-1.459-3.192c-0.685-0.926-2.984-6.216-3.923-6.432c-1.649-0.379-0.588,7.038-2.595,7.859
		c-1.271,0.52-4.296-2.237-5.198-2.83c-0.309-1.286,0.991-2.437,1.439-3.473c-0.898-0.045-7.497-1.246-4.887-0.214
		c-0.469,0.545-3.376,0.438-2.906,1.654c-0.134-0.345-0.454,2.573-0.321,2.307c-0.694,0.006-1.287,0.259-1.78,0.759
		c0.23-4.109-4.484-0.907-3.525,0.827c-3.017,0.138-0.183,0.114-1.364,1.341c-0.327-0.354-0.626-0.73-0.896-1.129
		c-1.683,0.66-0.442,1.485-0.97,2.522c-1.456,1.254-2.727,0.936-4.086,1.838c-1.904,1.265-5.466,1.482-5.396,4.354
		c0.062,2.539-0.382,3.213,0.505,5.526c0.723,1.884,2.059,5.882-0.232,6.985c2.085,3.745,10.294-1.459,12.664-2.123
		c3.294-0.922,5.635-1.601,8.781-0.124c0.628,0.295,1.014,3.136,1.575,3.361c0.465,0.187,2.442-2.709,3.558-3
		c-0.284,0.538-1.907,2.887-1.627,3.32c0.918,0.27,0.502-0.918,1.21-0.974c0.914,0.868,0.954,3.224,1.497,4.535
		c0.474,1.145,2.208,0.85,3.076,1.35c0.987,0.264,1.79-0.002,2.41-0.797c0.372,0.486,0.799,0.916,1.284,1.29
		C343.251,167.231,346.606,156.524,347.049,151.483C347.124,150.629,347.018,151.835,347.049,151.483z"/>
	<path fill="#CCCCCC" d="M117.301,26.535c-0.362-0.326-3.053-0.246-3.515-0.231c-0.025-1.275,1.064-0.428,1.497-1.459
		c-0.916-0.817-1.744-0.338-2.384,0.368c-1.02-0.769-1.25-1.625-2.107-1.785c-0.23-2.515-2.389-0.797-3.206-0.225
		c-0.21-0.238-0.351-0.512-0.425-0.819c-0.309,0.402-0.714,0.632-1.216,0.69c-0.211-4.006-0.145-3.508-3.541-2.193
		c0.031,0.109,0.107,3.394-0.414,3.649c-2.126,1.041,0.8-5.711,0.83-5.359c-2.325-0.368-2.472,0.798-4.037,1.762
		c-3.503,2.158,1.185,3.681,0.868,4.114c-3.161-0.99-1.154,1.541-0.319,0.829c1.376,0.348,6.581,2.508,7.618,1.669
		c0.16-0.601-0.555-1.298,0.527-1.43c0.627,1.203,2.413,2.141,2.004,3.566c0.27-0.038,2.18,0.097,2.381,0.225
		c0.15,0.876,0.385,1.728,0.704,2.557c-0.694,1.129-2.596,2.014-2.391,3.58c0.204,1.552-3.159-0.249-3.68,0.891
		c-0.917,2.004,1.514,2.311,1.406,0.341c3.024-0.423,4.093,6.496,8.318,5.757c0.142-0.939-1.313-1.718-1.658-2.513
		c2.161,0.321,1.991,2.055,3.726,0.067c-0.346-1.969-1.795-2.784-2.307-4.508c0.658-3.184,2.881,0.781,3.973,1.754
		c-0.301-1.702,2.475-2.463,2.171-4.123c-2.402,0.222-6.734-3.945-3.403-5.885c-1.054-0.382-1.715,0.088-2.711-0.452
		C116.739,27.368,117.17,27.088,117.301,26.535C117.033,26.293,117.261,26.652,117.301,26.535z"/>
	<path fill="#CCCCCC" d="M103.59,2.81c-0.672,1.375,0.995,0.388,2.168,0.78c-0.669,0.155-1.325,0.353-1.969,0.593
		c1.237,1.084,3.008-0.795,4.393-0.513c-0.862,2.439,4.562-0.35,5.024,0.603c0.996,2.054-7.702,2.015-7.216,1.265
		c-0.213,0.329,0.852,2.283,0.962,2.528c-0.692-0.131-3.757-0.741-3.422,0.914c0.172,0.85,2.155,0.241,2.599,0.114
		c-0.957,1.895,0.285,0.934,1.449,1.265c0.305,2.698-4.114-1.697-5.457,0.057c0.415,0.186,0.755,0.458,1.02,0.818
		c-1.422-0.333-2.384,0.058-2.885,1.174c2.023,0.858,5.922-0.495,7.477,0.759c4.527,3.652,1.855-3.024,0.988-2.035
		c1.168,0.14,5.94,0.033,5.897-2.384c-1.199,0.407-1.722,0.057-1.569-1.049c3.484,0.177,7.315-1.419,9.939-3.585
		c-0.881,0.146-1.764,0.273-2.651,0.383c0.6-1.69,5.361-1.227,6.848-2.406c-1.442-0.542-7.627-1.644-7.883-0.583
		c-0.563-0.741-3.847-2.625-3.301-0.494c-1.154-0.496-2.87-0.794-3.967,0.149c-1.015,0.874-5.325-1.771-4.775,0.692
		c-1.599,0.329-3.313-0.674-5.061,0.229C102.804,2.06,103.269,2.302,103.59,2.81C103.486,3.022,103.514,1.938,103.59,2.81z"/>
	<path fill="#CCCCCC" d="M324.013,121.525c-0.829-0.452-2.547-0.419-2.832,0.633c0.522,0.253,2.315,0.495,2.512,0.889
		c-0.553,0.129-1.03,0.395-1.43,0.8c0.72,0.269,0.897,1.511,1.465,1.502c0.682-0.011,0.429-1.174,0.685-1.63
		c-0.012-0.002,4.281,2.471,4.865,2.865c1.32,0.891,1.86,2.613,3.114,3.692c0.888,0.764,4.45,0.473,2.363-0.792
		c1.347-0.627,2.217-1.418,3.714-0.643c0.644,0.652,1.207,1.371,1.688,2.155c1.142,0.435,2.324,0.683,3.546,0.743
		c1.106-1.042-6.004-3.065-3.339-4.858c-1.305-1.364-6.919-3.647-8.947-3.657c-1.037-0.352-2.072-0.708-3.106-1.068
		c-0.343,0.445-0.782,0.749-1.319,0.912C324.935,125.872,325.019,122.073,324.013,121.525
		C323.086,121.019,324.089,121.566,324.013,121.525z"/>
	<path fill="#CCCCCC" d="M295.66,120.605c1.432,2.743,1.68,3.649,4.354,4.415c1.432,0.41,2.225-0.402,2.976,1.114
		c2.724-1.32,0.996-4.776,3.543-5.565c-1.202-1.918-2.901-3.705-0.113-4.925c-1.304-0.539-2.149-1.157-3.163-2.128
		c-0.731,1.4-2.012,3.388-3.189,4.45c-0.727,0.656-2.302,0.47-2.117,1.72C298.099,120.686,296.279,119.926,295.66,120.605
		C296.385,121.994,296.342,119.857,295.66,120.605z"/>
	<path fill="#CCCCCC" d="M231.506,137.707c0.02,2.251-2.672,3.932-4.489,4.446c-1.492,3.498-0.839,6.41-0.481,9.824
		c0.146,1.389,2.659,0.124,3.028-0.312c1.374-1.622,1.88-5.106,2.555-7.134C232.556,143.223,234.709,137.825,231.506,137.707
		C231.512,138.395,232.052,137.727,231.506,137.707z"/>
	<path fill="#CCCCCC" d="M170.73,52.385c-0.613,0,1.73,4.289,1.731,3.401c-0.002,1.558,1.119,1.037-0.65,1.996
		c0.21-0.114-0.661,2.027-0.648,2.154c0.478,0.217,1.521,0.364,1.849,0.775c-1.093,0.341-2.133,0.757-2.524,1.927
		c1.396-0.3,1.926-0.282,2.793-1.345c0.843,0.791,3.377,0.204,3.952-0.71c-0.249-0.163-0.48-0.349-0.691-0.559
		c1.692-1.511-1.748-5.855-3.437-7.031c1.595-1.392,1.423-3.288-0.762-2.266c-0.39-0.959,0.978-1.031,0.765-1.932
		C170.819,48.559,170.216,52.385,170.73,52.385z"/>
	<path fill="#CCCCCC" d="M62.368,22.28c2.237,3.632,4.192-2.35,7.157-2.038c-0.043,0.066-0.048,0.098-0.014,0.098
		c-0.149,0.659-1.398,1.218-1.819,1.976c1.522,0.962,1.705,0.506,3.253,0.401c-0.471,0.616-2.078,0.632-2.18,1.451
		c0.834,0.615,4.921,0.425,4.844,0.996c-0.874,0.543-4.613-0.687-4.591,1.187c0.018,1.584,2.784,0.715,2.857,2.376
		c0.085,1.932,6.418-0.102,7.204-0.844c1.321-1.247,3.032,2.388,4.595,0.559c0.133-0.524-0.11-0.591-0.727-0.199
		c-0.21-2.317,1.901-0.199,2.633-1.309c1.208-1.831-4.089-1.358-2.396-3.518c-0.501-1.925-0.307-3.073-2.218-3.984
		c-1.601-0.763-0.809,1.714-0.979,2.129c-1.544,0.926-1.384-3.62-3.764-0.685c-0.053-0.324-0.01-0.64,0.127-0.95
		c-0.921-0.66-1.879,0.045-2.912,0.194c2.285-3.311-4.089,0.221-3.36,0.221c0.033,0.043-0.233-0.454-0.233-0.428
		c-0.062-0.021,2.127-0.491,2.56-1.608c-1.739-1.527-6.636-2.728-9.06-1.894c0.457,0.643,0.862,1.228,1.062,1.98
		C62.235,18.834,61.444,20.78,62.368,22.28C62.618,22.686,62.146,21.92,62.368,22.28z"/>
	<path fill="#CCCCCC" d="M290.969,123.684c-1.502-3.092-8.083-7.337-11.274-7.688c0.552,1.741,4.116,4.794,5.569,5.89
		c2.157,1.626,3.993,7.047,7.467,6.296c-0.255-1.2-0.31-2.409-0.165-3.627C291.842,124.619,291.31,124.329,290.969,123.684z"/>
	<path fill="#CCCCCC" d="M292.566,124.554C292.663,124.551,292.587,124.454,292.566,124.554
		C292.587,124.553,292.57,124.536,292.566,124.554z"/>
	<path fill="#CCCCCC" d="M94.868,11.254c-3.95,0.645,2.131,2.179,1.507,4.228c-0.718,2.362,7.14,1.762,8.449,1.95
		c6.874,0.986,2.143-3.021-2.948-2.236c-1.611,0.249-2.885-0.119-3.719-1.478c1.413-1.565-0.852-1.265-1.869-1.168
		C96.46,12.015,95.218,11.196,94.868,11.254z"/>
	<path fill="#CCCCCC" d="M161.661,40.581c3.294-0.966,1.94-2.896,1.504-5.194c-1.599,0.691-3.187,0.77-4.736,1.212
		c-1.164,0.332-0.817,2.256-1.758-0.376c-0.537-1.501-2.215,1.105-2.338,1.333c1.764,1.245,2.782-0.718,0.643,1.256
		C157.958,39.34,157.346,41.847,161.661,40.581z"/>
	<path fill="#CCCCCC" d="M314.79,80.719c-1.77-0.431-2.985,0.183-3.645,1.842c1.946,1.586,3.24-1.216,5.442,1.308
		c0.374-0.704,0.374-1.891,0.629-2.222c3.894,2.785,2.827-1.938,3.192-3.725c0.236-1.158,1.41-3.802-1.399-3.365
		c-0.352,0.055-1.041,6.563-2.624,3.843C315.407,79.511,316.473,80.635,314.79,80.719z"/>
	<path fill="#CCCCCC" d="M369.171,171.397c-0.716,0.721-1.302,0.461-1.758-0.781c-2.168,3.486-5.217,5.681-8.327,8.269
		C362.76,184.805,369.586,171.693,369.171,171.397C368.991,171.506,369.541,171.66,369.171,171.397z"/>
	<path fill="#CCCCCC" d="M75.435,11.711c-1.129-0.389-1.747,0.843-2.546,1.342c0.947,0.696,1.711,0.506-0.764,0.816
		c-0.049,1.138,4.829,0.603,5.791,1.119c-0.863,0.496-1.739,0.377-2.687,0.654c0,2.454,4.868-0.452,5.842-0.288
		c1.521,0.255,2.5,0.203,2.93-1.416c0.44-1.657-1.696-0.278-2.191-0.593c-0.116-1.827,0.381-3.06-2.081-1.339
		c1.448,1.339,0.819,1.778-0.854,2.069C78.027,14.221,76.438,12.056,75.435,11.711z"/>
	<path fill="#CCCCCC" d="M96.174,6.086c2.108,0.355,2.537-0.608,3.52,0.568c-0.9-0.18-1.727-0.005-2.482,0.524
		c1.824,1.028,7.108,2.39,7.755-0.725c0.009,0-9.095-6.418-7.167-2.205c-0.261,0.044-2.014,0.252-2.056,1.008
		C96.602,5.343,96.745,5.619,96.174,6.086C96.835,6.198,96.28,5.939,96.174,6.086z"/>
	<path fill="#CCCCCC" d="M224.203,16.338c0.465,1.926-1.729,2.014-0.711,3.768c1.491,0,1.729,0.251,2.128-1.179
		c0.608-2.179,4.688-3.912,6.7-4.63c3.272-1.168,3.1-2.406,0.058-1.398C229.812,13.749,226.502,15.953,224.203,16.338
		C224.299,16.734,224.59,16.273,224.203,16.338z"/>
	<path fill="#CCCCCC" d="M374.787,165.509c-3.846,1.289-2.723-5.07-5.743-4.339c0.473,2.447,2.892,3.507,0.994,5.972
		c-1.632,2.12,1.241,2.261,0.022,4.499C371.228,172.499,375.645,166.224,374.787,165.509
		C374.291,165.675,375.145,165.807,374.787,165.509z"/>
	<path fill="#CCCCCC" d="M302.089,11.774c2.209,0.608,2.553-0.141,5.555-0.3c-0.021-0.139-2.311-1.78-0.478-1.792
		c3.212,4.306,3.459-4.086-2.096-1.111c0.307,0.34,0.366,0.716,0.176,1.126c-0.097,0.039-2.473-0.894-2.359-0.885
		C300.556,8.615,299.647,11.102,302.089,11.774z"/>
	<path fill="#CCCCCC" d="M188.963,11.09c0.986-0.359,1.515-0.715,1.908,0.371c-0.875,0.188-2.791,2.346-0.649,1.171
		c0,1.776-1.543,2.651,1.092,0.904c0.819-0.543,2.213-2.752,2.675-3.463c-1.559-0.364-3.21-1.81-4.086-0.033
		c-2.602-1.461-5.467-0.029-1.393,2.266C188.659,11.902,188.811,11.496,188.963,11.09C189.348,10.95,188.831,11.442,188.963,11.09z"
		/>
	<path fill="#CCCCCC" d="M167.191,55.808c-1.372,0.065-0.728,1.002,0.117,1.413c-0.864,0.541-0.887,0.906-0.068,1.095
		c-1.63,3.826,3.177,0.878,3.075-0.916c-0.01-0.172,0.568-3.205-0.578-3.106C168.004,54.443,168.345,55.753,167.191,55.808z"/>
	<path fill="#CCCCCC" d="M315.601,57.127c0.683,2.629,1.797,9.561,4.201,9.143c-2.714-2.465-0.54-4.323-1.533-6.751
		c-0.801-1.956-1.865-3.891-2.401-5.876C314.905,54.27,315.372,56.247,315.601,57.127C315.736,57.647,315.457,56.574,315.601,57.127
		z"/>
	<path fill="#CCCCCC" d="M123.746,60.996c-1.126,0.119-4.256,4.963-3.421,5.825c2.216-0.732,3.531,0.742,5.02,0.86
		c1.176-1.002-0.332-1.996-0.322-3.218C121.48,64.687,123.76,62.627,123.746,60.996C123.26,61.047,123.751,61.609,123.746,60.996z"
		/>
	<path fill="#CCCCCC" d="M68.278,12.498c0.519-0.019,4.808-1.236,3.957-1.93c0.312,0.286,0.327,0.63,0.044,1.033
		c0.818,0.635,2.895-1.699,3.239-2.386c-1.032-0.293-3.873-0.098-4.709,0.436C69.703,10.357,64.334,12.645,68.278,12.498z"/>
	<path fill="#CCCCCC" d="M103.452,39.339c-0.243-1.521-3.243-2.582-4.397-3.732c-1.156,0.625-1.12,2.731-1.937,3.729
		c0.948-0.036,1.355,0.396,1.223,1.296c1.191-0.413,1.246-1.655,2.253-1.877C100.887,38.69,103.644,40.537,103.452,39.339z"/>
	<path fill="#CCCCCC" d="M91.045,19.011c-0.032-0.476-0.245-0.846-0.638-1.11c-0.649,0.087-2.269,0.432-2.832,0.94
		c-0.289,0.338-0.183,0.673,0.319,1.004c-0.893,0.692-1.331-0.121-1.995,0.663c1.198,1.688,1.737,0.979,2.322,3.087
		c0.926-0.111,3.938-3.139,1.283-3.664C89.951,19.512,90.464,19.206,91.045,19.011C91.08,18.432,90.775,19.134,91.045,19.011z"/>
	<path fill="#CCCCCC" d="M307.919,125.329c1.31,0.595-0.019,1.211,0.583,2.109c2.439-0.266-0.598-2.956,0.766-3.617
		c1.064-0.516,1.024,2.912,2.088,3.09c0.533-0.462,1.264-0.754,0.544-1.612c-1.203-1.433-0.389-2.517-0.721-3.291
		c-1.3,0.318-3.022,0.618-2.373-1.287C307.847,120.734,307.049,124.934,307.919,125.329z"/>
	<path fill="#CCCCCC" d="M96.495,20.584c0.211-1.152,1.188-0.685,1.788-1.931c-0.813-0.344-4.188-1.058-4.776-0.339
		c-2.786,3.406,1.083,4.184,0.553,2.353C94.876,20.757,95.688,20.729,96.495,20.584C96.534,20.369,95.718,20.98,96.495,20.584z"/>
	<path fill="#CCCCCC" d="M321.579,69.901c-0.904-0.394-2.376-2.128-3.25-1.714c0.468,1.143-1.998,6.748,1.181,5.251
		c-0.504-0.298-0.95-0.667-1.337-1.106c1.334-0.622,1.43-0.351,2.683,0.174c0.711-1.441,0.385-1.034,2.453-1.44
		C323.142,69.993,322.566,69.604,321.579,69.901z"/>
	<path fill="#CCCCCC" d="M193.512,8.696c0.745-0.466,1.217-0.436,1.418,0.092c-0.396,0.021-0.708,0.193-0.937,0.517
		c2.004,0.579,4.277,0.522,5.764-1.191c-1.175-0.55-4.021-1.861-3.915-0.081c-0.886,0.255-1.876-0.845-2.097-1.533
		c-0.384,0.304-1.47,1.271-1.659,1.493C192.209,9.113,192.685,9.347,193.512,8.696z"/>
	<path fill="#CCCCCC" d="M221.099,24.191c0.272,0.681,4.03,1.226,4.319,1.131c-1.485-1.674-1.593-2.593-1.015-4.709
		C222.353,20.35,220.415,22.478,221.099,24.191z"/>
	<path fill="#CCCCCC" d="M335.084,170.721c-1.174,4.517,3.14,5.055,3.712,0.044C337.185,171.047,336.462,170.556,335.084,170.721
		C334.89,171.467,335.702,170.647,335.084,170.721z"/>
	<path fill="#CCCCCC" d="M302.856,131.404c0-1.899-9.251-3.612-9.703-1.691C296.001,130.307,299.936,131.603,302.856,131.404
		C302.856,131.178,302.644,131.418,302.856,131.404z"/>
	<path fill="#CCCCCC" d="M99.895,106.081c-1.559-2.695-7.692-4.193-9.816-1.891c1.418,0.229,2.47-1.165,3.829,0.081
		C95.24,105.492,98.149,107.144,99.895,106.081C99.809,105.933,98.99,106.632,99.895,106.081z"/>
	<path fill="#CCCCCC" d="M257.92,3.635c-0.46,0.163-0.912,0.345-1.355,0.549c1.542,0.351,7.827,2.156,5.957-1.672
		C262.111,2.376,258.267,2.88,257.92,3.635C257.87,3.743,258.327,2.75,257.92,3.635z"/>
	<path fill="#CCCCCC" d="M92.165,13.246c-0.352-2.397-3.163,0.233-3.508,0.562C88.294,14.154,92.981,18.799,92.165,13.246z"/>
	<path fill="#CCCCCC" d="M305.217,104.367c-0.148-0.167,1.217,1.601,1.641,1.45c0.36-0.128,0.305-3.437,0.251-3.796
		C306.684,99.205,303.539,102.476,305.217,104.367C305.541,104.733,305.072,104.204,305.217,104.367z"/>
	<path fill="#CCCCCC" d="M87.186,8.2c11.31,1.5-0.288-2.406-0.506-1.425c0.635-0.002,1.078,0.247,1.33,0.748
		C86.481,7.414,86.206,7.639,87.186,8.2z"/>
	<path fill="#CCCCCC" d="M309.196,113.009c4.457,0.114,0.271,0.372,3.068,1.248c1.115,0.349,1.241-0.311,1.749-0.831
		C316.363,111.019,309.338,110.194,309.196,113.009C309.896,113.027,309.203,112.868,309.196,113.009z"/>
	<path fill="#CCCCCC" d="M100.36,108.462c0.207,0.52,5.336-0.094,5.479-0.756c-2.159-1.595-2.241-1.213-4.496-1.426
		C102.623,108.058,100.232,108.141,100.36,108.462z"/>
	<path fill="#CCCCCC" d="M104.074,192.644C104.089,192.535,104.043,192.634,104.074,192.644
		C104.077,192.626,104.064,192.641,104.074,192.644z"/>
	<path fill="#CCCCCC" d="M103.335,193.453c-0.012-0.03,0.956,1.593,0.945,1.667c-0.709-0.152-1.351-0.038-1.927,0.341
		c0.936,0.742,4.781-0.003,5.756-0.447C107.049,194.669,103.935,191.463,103.335,193.453
		C103.454,193.751,103.451,193.069,103.335,193.453z"/>
	<path fill="#CCCCCC" d="M264.048,112.458c-1.16-0.628-0.096,3.185,0.178,3.637C266.949,116.448,265.166,113.062,264.048,112.458
		C263.923,112.39,265.127,113.041,264.048,112.458z"/>
	<path fill="#CCCCCC" d="M263.981,6.488c3.141-2.226,4.665-0.78,0.195-3.031C264.637,4.158,264.059,5.834,263.981,6.488
		C264.802,5.905,264.044,5.961,263.981,6.488z"/>
	<path fill="#CCCCCC" d="M312.116,11.027c1.587,0.824,3.477,0.742,5.028-0.1c-1.687-0.682-4.003-0.2-5.439-1.074
		C311.508,10.398,311.644,10.79,312.116,11.027z"/>
	<path fill="#CCCCCC" d="M310.049,83.851c0.291,0.332,1.946,2.552,2.15,2.526C313.853,84.967,311.834,81.929,310.049,83.851
		C310.208,84.032,310.293,83.588,310.049,83.851z"/>
	<path fill="#CCCCCC" d="M50.975,65.738c0.282,0.426,1.838,2.039,2.516,1.34c-0.054-1.3-3.603-4.133-4.443-2.799
		C49.655,64.811,50.297,65.297,50.975,65.738C51.431,66.426,50.62,65.202,50.975,65.738z"/>
	<path fill="#CCCCCC" d="M354.298,21.708c1.581-0.241-3.306-3.058-3.966-0.271C351.639,21.734,352.961,21.824,354.298,21.708
		C354.491,21.678,352.969,21.91,354.298,21.708z"/>
	<path fill="#CCCCCC" d="M93.299,7.578c0.796,0.94,0.561,2.815,3.041,1.125C97.262,8.075,93.708,6.041,93.299,7.578
		C93.464,7.772,93.412,7.156,93.299,7.578z"/>
	<path fill="#CCCCCC" d="M107.233,19.875c-2.317,0.718,2.803,1.602,3.054,1.584C109.829,20.12,108.596,19.452,107.233,19.875z"/>
	<path fill="#CCCCCC" d="M90.215,29.274c0.208-3.392-2.112-1.517-3.132-0.665C88.054,29.184,89.098,29.405,90.215,29.274
		C90.266,28.441,89.071,29.588,90.215,29.274z"/>
	<path fill="#CCCCCC" d="M256.944,2.885c1.08-0.084,2.082-0.409,3.006-0.976c-0.634-0.427-4.241-0.867-4.421,0.829
		C256.001,2.787,256.473,2.836,256.944,2.885z"/>
	<path fill="#CCCCCC" d="M308.912,15.28c-0.788-1.946-2.372-1.267-3.536-0.183C306.538,15.51,307.716,15.571,308.912,15.28
		C308.625,14.574,307.75,15.759,308.912,15.28z"/>
	<path fill="#CCCCCC" d="M303.885,96.304c0.569-1.25,0.468-2.298-0.302-3.146C302.063,93.74,302.257,96.136,303.885,96.304
		C304.12,95.445,303.328,96.246,303.885,96.304z"/>
	<path fill="#CCCCCC" d="M184.602,78.478c1.649-0.231,1.671-2.008,0.672-2.964C184.196,76.233,184.104,77.195,184.602,78.478
		C185.145,78.402,184.304,77.711,184.602,78.478z"/>
	<path fill="#CCCCCC" d="M292.806,99.606c-1.264,0.748-0.6,2.075,0.866,1.693C293.819,100.675,294.451,98.634,292.806,99.606
		C292.696,99.671,293.402,99.254,292.806,99.606z"/>
	<path fill="#CCCCCC" d="M78.867,9.339c1.469,0.35,2.265-0.135,2.387-1.456C81.391,7.856,76.533,9.433,78.867,9.339z"/>
	<path fill="#CCCCCC" d="M343.627,126.315c0.55-0.11,2.049-1.117,1.013-1.705c0.029,0.017-2.667,1.462-3.136,1.639
		C342.208,126.562,342.915,126.584,343.627,126.315z"/>
	<path fill="#CCCCCC" d="M312.662,120.703c0.633-0.074,0.996-0.428,1.09-1.063c-1.274,0.105-4.544,0.3-4.899,1.054
		C310.123,120.707,311.393,120.71,312.662,120.703z"/>
	<path fill="#CCCCCC" d="M308.853,120.694C308.775,120.694,308.826,120.75,308.853,120.694
		C308.841,120.694,308.849,120.703,308.853,120.694z"/>
	<path fill="#CCCCCC" d="M130.593,29.514C130.267,24.87,126.678,31.355,130.593,29.514
		C130.544,28.816,129.864,29.857,130.593,29.514z"/>
	<path fill="#CCCCCC" d="M92.887,16.062c0.691,0.22,1.383,0.44,2.074,0.661C95.588,15.15,93.316,14.32,92.887,16.062
		C93.544,16.271,93.101,15.189,92.887,16.062z"/>
	<path fill="#CCCCCC" d="M108.834,32.628c1.808-0.797,0.167-2.506-0.871-1.087C107.097,32.724,108.305,32.861,108.834,32.628z"/>
	<path fill="#CCCCCC" d="M196.063,12.023c-1.183-0.27-1.769,0.168-1.76,1.313C195.523,13.337,197.004,13.918,196.063,12.023
		C195.506,12.099,196.195,12.288,196.063,12.023z"/>
	<path fill="#CCCCCC" d="M315.118,82.822c-0.618-1.08-3.393,1.152-1.366,1.728C314.164,83.786,315.677,83.8,315.118,82.822z"/>
	<path fill="#CCCCCC" d="M191.031,80.769c-0.035-0.53-0.069-1.06-0.104-1.591c-0.837,0.141-1.654,0.356-2.452,0.645
		C189.29,80.239,190.142,80.555,191.031,80.769C191.184,80.318,190.48,80.881,191.031,80.769z"/>
	<path fill="#CCCCCC" d="M227.714,5.832c0.265-0.307,0.529-0.614,0.794-0.921c-0.56-0.699-2.288-0.424-2.174,0.64
		C226.794,5.645,227.254,5.738,227.714,5.832C227.978,5.526,227.208,5.886,227.714,5.832z"/>
	<path fill="#CCCCCC" d="M359.593,142.695c0.867,0.511,2.016,1.497,3.059,1.384C362.25,143.601,357.826,141.655,359.593,142.695z"/>
	<path fill="#CCCCCC" d="M229.254,4.915c0.693,0.28,1.781,0.036,1.642-0.977C230.666,2.257,228.455,4.592,229.254,4.915z"/>
	<path fill="#CCCCCC" d="M22.587,52.734c-0.779,0.112-1.478,0.422-2.097,0.93C21.503,55.14,22.989,52.707,22.587,52.734z"/>
	<path fill="#CCCCCC" d="M313.7,131.888c-0.689,0.535,3.354-0.425,2.752-1.347C315.354,130.62,314.436,131.069,313.7,131.888z"/>
	<path fill="#CCCCCC" d="M318.241,124.067c0.313-0.063,2.437,0.364,2.464-0.056c-0.767-0.781-2.623-0.897-3.323,0.062
		C317.668,124.071,317.954,124.069,318.241,124.067C318.811,123.951,318.035,124.109,318.241,124.067z"/>
	<path fill="#CCCCCC" d="M216.662,7.105c0.676-0.211,1.357-0.227,2.043-0.048c-0.43-0.727-0.301-1.31,0.388-1.749
		C218.353,4.627,216.995,6.677,216.662,7.105C217.17,7.015,217.277,6.315,216.662,7.105z"/>
	<path fill="#CCCCCC" d="M83.922,18.346c-0.605-0.064-1.209-0.128-1.814-0.193C82.401,20.396,84.416,18.499,83.922,18.346z"/>
	<path fill="#CCCCCC" d="M309.405,110.955c1.716-0.119,0.01-2.485-0.916-2.751C308.583,109.4,309.609,109.652,309.405,110.955
		C309.634,110.939,309.443,110.712,309.405,110.955z"/>
	<path fill="#CCCCCC" d="M317.426,119.717c-0.832,0.552-1.183,0.314-1.054-0.715C314.826,121.245,318.391,120.527,317.426,119.717
		C317.171,119.791,317.659,119.912,317.426,119.717z"/>
	<path fill="#CCCCCC" d="M0,41.09c0.909,0.267,2.441,1.55,2.929,0.29C1.987,40.936,1.011,40.839,0,41.09
		C0.414,41.212,1.008,40.896,0,41.09z"/>
	<path fill="#CCCCCC" d="M81.535,6.982c-1.008-0.46-1.899-0.283-2.836,0.498C79.797,7.58,80.664,7.289,81.535,6.982z"/>
	<path fill="#CCCCCC" d="M6.167,48.986c0.168-0.23,0.336-0.461,0.504-0.691c-0.418-0.904-0.99-0.888-1.717,0.046
		C5.174,48.943,5.578,49.158,6.167,48.986z"/>
	<path fill="#CCCCCC" d="M375.999,137.48c0.282,0.009-1.981,0.14-1.006,0.751C376.162,138.963,376.62,137.5,375.999,137.48z"/>
	<path fill="#CCCCCC" d="M156.967,23.888c0.443,0.475,1.29,1.297,2.024,0.798C158.705,23.916,157.843,23.578,156.967,23.888
		C157.693,24.665,157.629,23.654,156.967,23.888z"/>
	<path fill="#CCCCCC" d="M209.379,83.471c0.619-0.185,1.018-0.592,1.197-1.221C207.023,82.372,209.527,83.414,209.379,83.471z"/>
	<path fill="#CCCCCC" d="M292.676,17.106c-0.541,0.035,0.35,1.372,1.468,0.645C293.655,17.536,293.166,17.321,292.676,17.106z"/>
	<path fill="#CCCCCC" d="M115.478,63.909c0.608,0.907,1.317,1.198,2.125,0.872C117.077,64.035,116.369,63.745,115.478,63.909
		C115.894,64.458,116.341,63.748,115.478,63.909z"/>
	<path fill="#CCCCCC" d="M218.593,28.299c-0.629-0.111-0.991,0.129-1.086,0.721C217.431,29.944,220.139,28.719,218.593,28.299
		C217.84,28.282,218.663,28.318,218.593,28.299z"/>
	<path fill="#CCCCCC" d="M338.088,23.206c0.464-0.054,0.928-0.109,1.393-0.163C338.907,21.647,337.354,22.857,338.088,23.206z"/>
	<path fill="#CCCCCC" d="M227.539,25.608c-0.694-0.181,0.377,1.285,1.44,1.024C228.499,26.291,228.019,25.95,227.539,25.608z"/>
	<path fill="#CCCCCC" d="M309.27,105.668c-0.499-0.09-0.998-0.179-1.497-0.269c0.123,0.391,1.793,1.425,2.111,0.891
		C309.679,106.083,309.474,105.876,309.27,105.668z"/>
	<path fill="#CCCCCC" d="M238.044,19.301c0.818-0.012-0.407-1.333-0.31-1.182C236.649,18.652,237.005,19.317,238.044,19.301z"/>
	<path fill="#CCCCCC" d="M99.724,41.701c-0.591,0.484,1.015,0.525,1.667-0.516C100.747,41.098,100.191,41.27,99.724,41.701z"/>
	<path fill="#CCCCCC" d="M311.748,107.621c-1.653-0.545-1.587-0.125,0.2,1.258C311.882,108.46,311.815,108.04,311.748,107.621
		C311.443,107.335,312.07,107.923,311.748,107.621z"/>
	<path fill="#CCCCCC" d="M103.618,43.302c0.558-0.464,0.567-0.873,0.028-1.225C102.641,41.888,103.003,43.691,103.618,43.302z"/>
	<path fill="#CCCCCC" d="M224.119,4.799c-0.735-0.113-1.296-0.619-1.97-0.038C222.999,5.121,223.178,5.127,224.119,4.799z"/>
	<path fill="#CCCCCC" d="M202.638,82.924c-0.81,0.017-1.616-0.025-2.42-0.125C200.991,83.58,201.798,83.622,202.638,82.924
		C202.208,82.924,201.6,83.544,202.638,82.924z"/>
	<path fill="#CCCCCC" d="M293.325,124.565c-0.177-0.885-0.678-1.164-1.503-0.836C292.057,123.968,292.757,125.049,293.325,124.565
		C293.154,124.275,292.989,124.851,293.325,124.565z"/>
	<path fill="#CCCCCC" d="M157.397,23.075c0.679,0.294,1.269,0.518,1.998,0.529C158.878,22.849,158.755,22.818,157.397,23.075z"/>
	<path fill="#CCCCCC" d="M327.222,163.339c-0.916,0.315,1.226,0.387,1.704,0.188C328.367,163.225,327.799,163.163,327.222,163.339z"
		/>
	<path fill="#CCCCCC" d="M95.997,108.629c-0.168,0.05,0.795,0.892,1.536,0.137C97.048,108.351,96.536,108.305,95.997,108.629z"/>
	<path fill="#CCCCCC" d="M44.574,57.595c-0.044,0.638,0.119,1.215,0.491,1.73C45.566,58.232,45.765,58.278,44.574,57.595
		C44.655,58.359,45.026,57.854,44.574,57.595z"/>
	<path fill="#CCCCCC" d="M216.566,6.362c0.305-0.336,0.609-0.673,0.914-1.009C216.083,5.051,215.798,7.127,216.566,6.362z"/>
	<path fill="#CCCCCC" d="M86.429,10.086c-0.219-0.629-0.606-0.893-1.162-0.794C85.297,10.174,85.684,10.439,86.429,10.086
		C86.139,9.757,85.584,10.364,86.429,10.086z"/>
	<path fill="#CCCCCC" d="M117.673,69.895c0.545-0.255,0.705-0.806,0.48-1.652C117.438,68.32,116.903,69.631,117.673,69.895z"/>
	<path fill="#CCCCCC" d="M277.125,14.463c0.375-0.087,0.751-0.175,1.126-0.262C277.337,13.746,276.18,14.552,277.125,14.463z"/>
	<path fill="#CCCCCC" d="M185.659,50.497c0.08-0.332-0.012-0.606-0.277-0.822c-0.348-0.103-0.839,0.822-0.614,0.822
		C185.065,50.497,185.362,50.497,185.659,50.497z"/>
	<path fill="#CCCCCC" d="M187.344,54.047c0.248-0.374,0.185-0.721-0.187-1.039C186.242,53.593,186.788,54.417,187.344,54.047z"/>
	<path fill="#CCCCCC" d="M14.181,115.919c-0.008,0.385,0.14,0.702,0.443,0.949C15.073,116.291,15.133,115.249,14.181,115.919
		C14.34,116.204,14.559,115.653,14.181,115.919z"/>
	<path fill="#CCCCCC" d="M329.155,129.267c0.416,0.602,0.739,0.48,0.969-0.369C329.754,128.505,329.431,128.628,329.155,129.267z"/>
	<path fill="#CCCCCC" d="M107.32,108.371c1.089-0.005,1.089-0.005,1.448-0.397C107.773,107.749,107.773,107.749,107.32,108.371z"/>
	<path fill="#CCCCCC" d="M347.633,125.685c0.783,0.844,0.783,0.844,1.433,0.845C348.55,125.717,348.426,125.636,347.633,125.685z"/>
	<path fill="#CCCCCC" d="M185.316,74.326c0.289-0.61,0.197-0.923-0.278-0.939C184.627,74.391,185.271,74.686,185.316,74.326z"/>
	<path fill="#CCCCCC" d="M261.986,9.087c0.102-0.154-0.324-1.343-1.248,0.53C261.154,9.44,261.57,9.264,261.986,9.087z"/>
	<path fill="#CCCCCC" d="M306.356,131.213c-0.34-0.285-0.711-0.324-1.248-0.115C305.86,131.73,305.862,131.73,306.356,131.213z"/>
	<path fill="#CCCCCC" d="M255.571,3.611c-0.392-0.336-0.813-0.397-1.264-0.183C254.526,4.069,254.947,4.13,255.571,3.611
		C254.872,3.234,255.204,3.724,255.571,3.611z"/>
	<path fill="#CCCCCC" d="M92.996,5.039c0.812,0.138,0.877-0.071,0.194-0.628C92.76,4.515,92.695,4.724,92.996,5.039z"/>
	<path fill="#CCCCCC" d="M224.519,3.542c-0.474,0.212-1.094-0.324-1.612,0.481C223.585,4.045,224.122,4.155,224.519,3.542z"/>
	<path fill="#CCCCCC" d="M1.539,62.565"/>
	<path fill="#CCCCCC" d="M85.144,15.247c0.676-0.316,0.764-0.603,0.263-0.861C84.583,14.423,84.936,15.42,85.144,15.247z"/>
	<path fill="#CCCCCC" d="M137.426,190.811c0.555,0.388,0.979,0.577,1.554,0.505C138.619,190.59,138.067,190.88,137.426,190.811z"/>
	<path fill="#CCCCCC" d="M224.969,6.106c0.255-0.274,0.51-0.548,0.765-0.821C223.225,5.771,225.201,5.934,224.969,6.106z"/>
	<path fill="#CCCCCC" d="M97.449,9.909c-0.578,0-1.229-0.074-1.738,0.201C96.325,10.334,96.904,10.267,97.449,9.909
		C97.219,9.909,96.635,10.298,97.449,9.909z"/>
	<path fill="#CCCCCC" d="M200.455,10.389C202.795,9.659,197.722,11.242,200.455,10.389
		C200.574,10.353,200.225,10.461,200.455,10.389z"/>
	<path fill="#CCCCCC" d="M338.096,46.231c-0.179-0.755-0.521,1.153-0.53,0.976C338.055,47.008,338.232,46.683,338.096,46.231z"/>
	<path fill="#CCCCCC" d="M305.799,13.391c-0.372-0.281-0.722-0.183-1.052,0.295C304.96,13.868,306.127,14.119,305.799,13.391z"/>
	<path fill="#CCCCCC" d="M101.997,52.536c-0.473-0.003-0.673,0.272-0.756,0.69C101.934,53.459,102.031,53.369,101.997,52.536z"/>
	<path fill="#CCCCCC" d="M308.546,132.26c0.449,0.121,0.841,0.226,1.444,0.389C309.257,132.062,309.257,132.062,308.546,132.26z"/>
	<path fill="#CCCCCC" d="M188.989,30.755c0.465-0.045,0.763-0.209,0.954-0.663C189.466,30.157,189.095,30.22,188.989,30.755z"/>
	<path fill="#CCCCCC" d="M316.285,124.096c-0.551-0.012-0.607,0.176-0.168,0.564C316.853,124.668,316.908,124.48,316.285,124.096z"
		/>
	<path fill="#CCCCCC" d="M99.017,180.577c-0.415,0.441-0.407,0.951-0.494,1.478C99.055,181.833,99.056,181.83,99.017,180.577z"/>
	<path fill="#CCCCCC" d="M275.469,108.654c0-0.304,0-0.538,0-0.773C275.469,108.32,275.469,108.32,275.469,108.654z"/>
	<path fill="#CCCCCC" d="M193.415,50.57c-0.049-0.304-0.097-0.608-0.146-0.912C193.174,49.868,193.062,51.439,193.415,50.57
		C193.525,50.3,193.373,50.673,193.415,50.57z"/>
	<path fill="#CCCCCC" d="M309.294,131.077c0.35,0.153,0.656,0.144,1.004-0.22C309.806,130.612,309.506,130.661,309.294,131.077z"/>
	<path fill="#CCCCCC" d="M196.952,48.559c-0.165-0.345-0.426-0.374-0.781-0.089C195.936,49.116,196.826,49.041,196.952,48.559
		C196.893,48.487,196.875,48.855,196.952,48.559z"/>
	<path fill="#CCCCCC" d="M361.811,107.109c-0.158-0.398-0.457-0.532-0.895-0.403C360.886,106.631,361.672,108.057,361.811,107.109z"
		/>
	<path fill="#CCCCCC" d="M353.728,128.324c-0.316-0.172-0.574-0.312-0.831-0.453C353.259,128.473,353.259,128.473,353.728,128.324z"
		/>
	<path fill="#CCCCCC" d="M221.814,6.195c-0.551,0.034-0.83,0.051-1.15,0.071C220.984,6.803,220.984,6.803,221.814,6.195z"/>
	<path fill="#CCCCCC" d="M179.572,77.735c0.302-0.257-0.451-0.807-0.722,0C178.659,78.305,179.507,77.791,179.572,77.735z"/>
	<path fill="#CCCCCC" d="M45.752,60.752c0.147-0.462,0.172-0.773-0.117-1.054C45.32,60.106,45.32,60.106,45.752,60.752z"/>
	<path fill="#CCCCCC" d="M360.308,109.844c0.357,0.26,0.648,0.417,1.13-0.046C360.777,109.622,360.777,109.622,360.308,109.844z"/>
	<path fill="#CCCCCC" d="M350.233,126.865c0.259,0.215,0.472,0.393,0.737,0.614C350.994,126.744,350.921,126.684,350.233,126.865z"
		/>
	<path fill="#CCCCCC" d="M44.953,54.148c0.098,0.339-0.006,0.802,0.51,0.902C45.669,54.515,45.293,54.329,44.953,54.148z"/>
	<path fill="#CCCCCC" d="M170.21,49.008c-0.488,0.041-0.704,0.257-0.805,0.762C169.889,49.604,170.124,49.412,170.21,49.008z"/>
	<path fill="#CCCCCC" d="M42.283,49.841c-0.533,0.235-0.669,0.595-0.408,1.08C41.833,50.961,42.689,49.623,42.283,49.841z"/>
	<path fill="#CCCCCC" d="M340.73,53.768c0.239,0.595,0.522,0.74,0.849,0.436C341.466,53.566,341.183,53.421,340.73,53.768
		C340.929,53.952,340.834,53.441,340.73,53.768z"/>
	<path fill="#CCCCCC" d="M379.591,176.703c-0.299-0.38-0.84-0.016-0.389,0.335C379.664,177.373,379.794,177.262,379.591,176.703z"/>
	<path fill="#CCCCCC" d="M245.844,19.235C247.464,18.693,244.937,19.538,245.844,19.235C245.979,19.19,245.768,19.26,245.844,19.235
		z"/>
	<path fill="#CCCCCC" d="M86.815,12.458c0.267-0.353,0.234-0.61-0.099-0.771C86.311,11.939,86.344,12.196,86.815,12.458
		C86.894,12.169,86.612,12.228,86.815,12.458z"/>
	<path fill="#CCCCCC" d="M234.156,109.648c-0.335,0.16-0.57,0.273-0.962,0.461C233.912,110.121,233.912,110.121,234.156,109.648z"/>
	<path fill="#CCCCCC" d="M196.241,26.054C194.573,26.549,196.97,25.837,196.241,26.054C196.084,26.1,196.298,26.036,196.241,26.054z
		"/>
	<path fill="#CCCCCC" d="M203.722,7.166c-0.563,0.102-0.563,0.102-0.802,0.527C203.26,7.626,203.594,7.578,203.722,7.166z"/>
	<path fill="#CCCCCC" d="M113.306,191.018c0.261-0.104,0.521-0.208,0.967-0.386C113.693,190.422,113.387,190.417,113.306,191.018z"
		/>
	<path fill="#CCCCCC" d="M42.914,51.357c-0.172,0.257-0.158,0.549,0.04,0.877C43.38,52.052,43.318,51.234,42.914,51.357z"/>
	<path fill="#CCCCCC" d="M226.957,4.096C228.044,4.477,226.028,3.77,226.957,4.096C227.152,4.164,226.897,4.075,226.957,4.096z"/>
	<path fill="#CCCCCC" d="M247.835,16.254C248.691,15.374,246.947,17.168,247.835,16.254
		C247.918,16.169,247.523,16.575,247.835,16.254z"/>
	<path fill="#CCCCCC" d="M306.61,106.516c0.15,0.299,0.298,0.595,0.719,0.758C307.004,106.653,307.004,106.653,306.61,106.516z"/>
	<path fill="#CCCCCC" d="M99.452,59.19c0.088-0.405,0.03-0.685-0.429-0.889C98.871,58.772,99.017,59.016,99.452,59.19z"/>
	<path fill="#CCCCCC" d="M310.46,52.528c0.577-0.143,0.542-0.297-0.105-0.461C309.886,52.166,309.921,52.32,310.46,52.528z"/>
	<path fill="#CCCCCC" d="M89.602,9c-0.544,0.25-0.526,0.376,0.054,0.377C90.15,9.18,90.132,9.054,89.602,9z"/>
	<path fill="#CCCCCC" d="M294.695,124.918C295.968,124.68,293.699,125.104,294.695,124.918
		C294.8,124.898,294.487,124.957,294.695,124.918z"/>
	<path fill="#CCCCCC" d="M115.594,190.255C114.335,189.837,116.434,190.534,115.594,190.255
		C115.343,190.172,115.645,190.272,115.594,190.255z"/>
	<path fill="#CCCCCC" d="M307.121,130.876C307.651,131.916,308.06,130.276,307.121,130.876
		C307.177,130.987,307.206,130.822,307.121,130.876z"/>
	<path fill="#CCCCCC" d="M3.319,62.16C2.012,62.604,3.761,62.01,3.319,62.16C3.171,62.21,3.355,62.148,3.319,62.16z"/>
	<path fill="#CCCCCC" d="M22.719,51.676c0.492,0.095,0.636-0.138,0.604-0.588C23.14,51.266,22.956,51.445,22.719,51.676z"/>
	<path fill="#CCCCCC" d="M229.169,2.758C229.06,2.152,228.133,2.484,229.169,2.758C229.137,2.582,228.98,2.708,229.169,2.758z"/>
	<path fill="#CCCCCC" d="M321.456,133.908C322.042,134.488,322.295,133.081,321.456,133.908
		C321.54,133.991,321.564,133.802,321.456,133.908z"/>
	<path fill="#CCCCCC" d="M46.737,56.212C46.495,56.029,47.579,56.851,46.737,56.212C46.718,56.198,46.835,56.287,46.737,56.212z"/>
	<path fill="#CCCCCC" d="M345.41,124.303C345.514,124.375,346.236,124.882,345.41,124.303
		C345.406,124.3,345.531,124.387,345.41,124.303z"/>
	<path fill="#CCCCCC" d="M96.528,100.274C96.031,101.217,96.797,99.763,96.528,100.274
		C96.445,100.431,96.549,100.234,96.528,100.274z"/>
	<path fill="#CCCCCC" d="M305.799,109.721C306.198,109.103,304.726,111.388,305.799,109.721
		C305.902,109.562,305.676,109.913,305.799,109.721z"/>
	<path fill="#CCCCCC" d="M101.335,35.423C100.665,34.57,100.71,35.667,101.335,35.423C101.24,35.302,101.26,35.452,101.335,35.423z"
		/>
	<path fill="#CCCCCC" d="M303.439,131.086C303.873,131.592,304.094,130.963,303.439,131.086
		C303.519,131.18,303.559,131.064,303.439,131.086z"/>
	<path fill="#CCCCCC" d="M376.969,136.424C376.258,136.598,378.965,135.938,376.969,136.424
		C376.912,136.438,377.085,136.396,376.969,136.424z"/>
	<path fill="#CCCCCC" d="M330.748,61.886C329.949,62.324,331.071,62.659,330.748,61.886
		C330.653,61.938,330.779,61.962,330.748,61.886z"/>
	<path fill="#CCCCCC" d="M324.992,127.868C325.472,127.185,324.425,127.178,324.992,127.868
		C325.058,127.775,324.924,127.785,324.992,127.868z"/>
	<path fill="#CCCCCC" d="M304.636,110.642c-0.13,0.159-0.238,0.293-0.347,0.426C304.47,110.992,304.786,111.01,304.636,110.642z"/>
	<path fill="#CCCCCC" d="M187.241,12.755c0.184,0.257,0.363,0.477,0.737,0.302C187.825,12.725,187.605,12.599,187.241,12.755z"/>
	<path fill="#CCCCCC" d="M183.716,51.618C185.22,51.038,182.715,52.004,183.716,51.618C183.823,51.576,183.63,51.651,183.716,51.618
		z"/>
	<path fill="#CCCCCC" d="M99.586,12.624C99.242,12.311,99.102,12.995,99.586,12.624C99.533,12.575,99.507,12.685,99.586,12.624z"/>
	<path fill="#CCCCCC" d="M71.285,12.999C71.982,13.326,71.83,12.155,71.285,12.999C71.348,13.029,71.307,12.964,71.285,12.999z"/>
	<path fill="#CCCCCC" d="M87.556,13.23C86.324,13.528,87.184,13.713,87.556,13.23C87.254,13.303,87.117,13.8,87.556,13.23z"/>
	<path fill="#CCCCCC" d="M310.468,109.341C310.649,109.18,310.499,109.242,310.468,109.341
		C310.501,109.312,310.478,109.311,310.468,109.341z"/>
	<path fill="#CCCCCC" d="M310.567,109.253c0.525,0.058,1.171,0.261,1.776,0.396C311.749,109.259,311.059,108.842,310.567,109.253
		C310.587,109.255,310.581,109.24,310.567,109.253z"/>
	<path fill="#CCCCCC" d="M282.791,120.896C283.359,121.552,283.455,120.611,282.791,120.896
		C282.871,120.987,282.861,120.866,282.791,120.896z"/>
	<path fill="#CCCCCC" d="M87.812,13.688C86.997,13.919,88.79,13.411,87.812,13.688C87.739,13.708,87.891,13.665,87.812,13.688z"/>
	<path fill="#CCCCCC" d="M135.271,2.87C135.833,3.126,134.68,2.602,135.271,2.87C135.326,2.895,135.213,2.844,135.271,2.87z"/>
	<path fill="#CCCCCC" d="M11.513,114.063C11.033,113.818,12.465,114.55,11.513,114.063C11.47,114.042,11.614,114.115,11.513,114.063
		z"/>
	<path fill="#CCCCCC" d="M300.515,13.808C300.229,13.296,300.098,14.047,300.515,13.808
		C300.474,13.734,300.453,13.843,300.515,13.808z"/>
	<path fill="#CCCCCC" d="M162.023,16.593C161.563,18.463,162.189,15.915,162.023,16.593
		C161.996,16.706,162.036,16.539,162.023,16.593z"/>
	<path fill="#CCCCCC" d="M338.79,169.036C338.864,168.293,338.731,169.615,338.79,169.036
		C338.797,168.965,338.785,169.079,338.79,169.036z"/>
	<path fill="#CCCCCC" d="M45.26,55.91C44.693,56.307,45.628,55.653,45.26,55.91C45.2,55.952,45.293,55.887,45.26,55.91z"/>
	<path fill="#CCCCCC" d="M185.813,53.794C186.11,54.347,186.25,53.661,185.813,53.794C185.86,53.881,185.883,53.772,185.813,53.794z
		"/>
	<path fill="#CCCCCC" d="M355.065,128.917C354.733,129.302,355.765,129.465,355.065,128.917
		C355.038,128.948,355.126,128.965,355.065,128.917z"/>
	<path fill="#CCCCCC" d="M351.231,128.605C351.843,129.416,350.951,128.238,351.231,128.605
		C351.298,128.695,351.209,128.577,351.231,128.605z"/>
	<path fill="#CCCCCC" d="M311.039,130.791C311.478,131.077,311.61,130.656,311.039,130.791
		C311.116,130.841,311.119,130.772,311.039,130.791z"/>
	<path fill="#CCCCCC" d="M219.042,6.772C218.728,7.29,219.411,6.163,219.042,6.772C219.013,6.821,219.079,6.712,219.042,6.772z"/>
	<path fill="#CCCCCC" d="M100.301,194.787C100.839,195.34,100.798,194.446,100.301,194.787
		C100.381,194.869,100.365,194.743,100.301,194.787z"/>
	<path fill="#CCCCCC" d="M96.645,97.876C95.814,98.449,97.071,97.583,96.645,97.876C96.555,97.938,96.679,97.853,96.645,97.876z"/>
	<path fill="#CCCCCC" d="M80.674,133.535C80.558,134.204,80.782,132.918,80.674,133.535C80.663,133.6,80.684,133.479,80.674,133.535
		z"/>
	<path fill="#CCCCCC" d="M225.966,25.556C227.004,25.956,226.129,25.028,225.966,25.556
		C226.104,25.609,225.985,25.496,225.966,25.556z"/>
	<path fill="#CCCCCC" d="M309.769,107.361C309.319,107.05,310.719,108.019,309.769,107.361
		C309.734,107.337,309.871,107.432,309.769,107.361z"/>
	<path fill="#CCCCCC" d="M354.451,132.06C354.675,132.636,354.354,131.808,354.451,132.06
		C354.476,132.123,354.443,132.037,354.451,132.06z"/>
	<path fill="#CCCCCC" d="M362.792,181.246C362.792,182.07,363.103,181.482,362.792,181.246
		C362.792,181.403,362.896,181.324,362.792,181.246z"/>
	<path fill="#CCCCCC" d="M221.086,130.938C221.008,131.075,221.025,131.045,221.086,130.938L221.086,130.938z"/>
	<path fill="#CCCCCC" d="M311.228,121.982c0.159,0.013,0.316,0.025,0.473,0.037C311.532,121.848,311.376,121.878,311.228,121.982z"
		/>
	<path fill="#CCCCCC" d="M311.228,121.982C311.126,121.973,311.177,122.018,311.228,121.982
		C311.208,121.98,311.217,121.989,311.228,121.982z"/>
	<path fill="#CCCCCC" d="M240.463,147.16C240.358,147.273,241.068,146.511,240.463,147.16
		C240.459,147.164,240.536,147.081,240.463,147.16z"/>
	<path fill="#CCCCCC" d="M238.26,147.956C238.828,148.684,238.013,147.64,238.26,147.956
		C238.323,148.036,238.248,147.94,238.26,147.956z"/>
	<path fill="#CCCCCC" d="M362.945,135.107C362.814,134.549,362.514,135.278,362.945,135.107
		C362.927,135.029,362.886,135.13,362.945,135.107z"/>
	<path fill="#CCCCCC" d="M238.278,129.122C237.696,128.9,238.838,129.335,238.278,129.122
		C238.223,129.101,238.329,129.141,238.278,129.122z"/>
	<path fill="#CCCCCC" d="M343.138,54.755C342.763,54.663,343.868,54.934,343.138,54.755
		C343.109,54.748,343.216,54.774,343.138,54.755z"/>
	<path fill="#CCCCCC" d="M251.423,15.536C252.029,15.341,251.045,15.657,251.423,15.536
		C251.487,15.515,251.39,15.546,251.423,15.536z"/>
	<path fill="#CCCCCC" d="M188.495,54.899C188.277,55.233,188.963,55.253,188.495,54.899
		C188.471,54.936,188.562,54.95,188.495,54.899z"/>
	<path fill="#CCCCCC" d="M87.131,12.837C87.058,12.81,86.533,14.219,87.131,12.837C87.102,12.826,87.051,13.021,87.131,12.837z"/>
	<path fill="#CCCCCC" d="M76.834,10.672C76.389,10.377,76.34,10.914,76.834,10.672C76.769,10.629,76.762,10.708,76.834,10.672z"/>
	<path fill="#CCCCCC" d="M261.503,10.315C261.635,10.529,261.764,10.318,261.503,10.315
		C261.527,10.354,261.542,10.315,261.503,10.315z"/>
	<path fill="#CCCCCC" d="M299.77,10.325C299.533,9.858,299.328,10.496,299.77,10.325C299.734,10.254,299.701,10.352,299.77,10.325z"
		/>
	<path fill="#CCCCCC" d="M105.566,28.158C105.798,27.893,105.327,27.752,105.566,28.158C105.607,28.11,105.53,28.097,105.566,28.158
		z"/>
	<path fill="#CCCCCC" d="M160.54,93.997C161.195,94.141,160.04,93.886,160.54,93.997C160.607,94.011,160.497,93.987,160.54,93.997z"
		/>
	<path fill="#CCCCCC" d="M173.367,47.844C173.123,47.749,173.159,48.057,173.367,47.844
		C173.328,47.829,173.329,47.882,173.367,47.844z"/>
	<path fill="#CCCCCC" d="M114.163,46.206C114.357,45.867,113.871,45.795,114.163,46.206C114.2,46.142,114.117,46.141,114.163,46.206
		z"/>
	<path fill="#CCCCCC" d="M101.144,104.723C100.599,105.06,101.293,104.632,101.144,104.723
		C101.077,104.765,101.157,104.715,101.144,104.723z"/>
	<path fill="#CCCCCC" d="M305.546,109.394C305.537,109.505,305.574,109.436,305.546,109.394
		C305.544,109.413,305.554,109.407,305.546,109.394z"/>
	<path fill="#CCCCCC" d="M305.546,109.394c0.014-0.186,0.028-0.384,0.051-0.719C305.366,109.095,305.359,109.116,305.546,109.394z"
		/>
	<path fill="#CCCCCC" d="M224.194,2.79C223.651,2.515,223.799,3.126,224.194,2.79C224.123,2.754,224.136,2.839,224.194,2.79z"/>
	<path fill="#CCCCCC" d="M140.87,2.32C141.448,2.579,140.285,2.059,140.87,2.32C140.924,2.345,140.816,2.296,140.87,2.32z"/>
	<path fill="#CCCCCC" d="M112.897,117.034C112.707,117.537,113.417,117.257,112.897,117.034
		C112.872,117.101,112.97,117.065,112.897,117.034z"/>
	<path fill="#CCCCCC" d="M190.794,28.851C190.553,29.335,191.099,28.237,190.794,28.851
		C190.772,28.894,190.825,28.789,190.794,28.851z"/>
	<path fill="#CCCCCC" d="M87.218,24.792C86.93,24.751,87.532,24.837,87.218,24.792C87.19,24.788,87.246,24.796,87.218,24.792z"/>
	<path fill="#CCCCCC" d="M107.704,27.879C107.833,27.874,107.83,27.874,107.704,27.879L107.704,27.879z"/>
	<path fill="#CCCCCC" d="M223.825,28.269C224.137,27.774,223.653,28.541,223.825,28.269
		C223.859,28.216,223.81,28.293,223.825,28.269z"/>
	<path fill="#CCCCCC" d="M223.763,28.331C223.702,28.384,223.793,28.438,223.763,28.331
		C223.755,28.338,223.768,28.351,223.763,28.331z"/>
	<path fill="#CCCCCC" d="M127.93,19.868C128.091,19.824,128.071,19.672,127.93,19.868C127.97,19.857,127.959,19.828,127.93,19.868z"
		/>
	<path fill="#CCCCCC" d="M243.212,18.213C243.016,18.028,242.909,18.397,243.212,18.213
		C243.182,18.184,243.176,18.235,243.212,18.213z"/>
	<path fill="#CCCCCC" d="M90.395,17.92C90.457,17.945,90.415,17.891,90.395,17.92C90.405,17.924,90.399,17.914,90.395,17.92z"/>
	<path fill="#CCCCCC" d="M90.296,18.054C90.438,17.865,90.229,17.743,90.296,18.054C90.329,18.01,90.283,17.99,90.296,18.054z"/>
	<path fill="#CCCCCC" d="M94.383,17.062C94.265,17.187,94.339,17.108,94.383,17.062L94.383,17.062z"/>
	<path fill="#CCCCCC" d="M294.057,16.86C293.985,16.672,293.808,16.927,294.057,16.86C294.047,16.834,294.021,16.87,294.057,16.86z"
		/>
	<path fill="#CCCCCC" d="M109.867,15.253C110.074,15.318,109.934,15.116,109.867,15.253
		C109.902,15.264,109.88,15.227,109.867,15.253z"/>
	<path fill="#CCCCCC" d="M116.737,11.378C116.388,11.262,117.042,11.481,116.737,11.378
		C116.702,11.367,116.765,11.388,116.737,11.378z"/>
	<path fill="#CCCCCC" d="M116.895,10.716C117.339,10.485,116.765,10.783,116.895,10.716
		C116.949,10.688,116.891,10.718,116.895,10.716z"/>
	<path fill="#CCCCCC" d="M77.112,8.22C76.83,7.902,76.863,8.565,77.112,8.22C77.085,8.191,77.089,8.253,77.112,8.22z"/>
	<path fill="#CCCCCC" d="M223.791,6.264C223.904,6.227,223.893,5.996,223.791,6.264C223.819,6.255,223.809,6.217,223.791,6.264z"/>
	<path fill="#CCCCCC" d="M222.717,6.017C222.877,6.314,222.961,5.99,222.717,6.017C222.744,6.068,222.756,6.013,222.717,6.017z"/>
	<path fill="#CCCCCC" d="M106.521,195.807C106.484,195.763,106.429,195.698,106.521,195.807L106.521,195.807z"/>
	<path fill="#CCCCCC" d="M105.066,196.091C105.466,196.115,104.684,196.067,105.066,196.091
		C105.103,196.093,105.031,196.089,105.066,196.091z"/>
	<path fill="#CCCCCC" d="M104.342,196.235C103.704,196.349,104.626,196.184,104.342,196.235
		C104.272,196.247,104.363,196.231,104.342,196.235z"/>
	<path fill="#CCCCCC" d="M294.187,117.985C294.134,118.035,294.039,118.127,294.187,117.985L294.187,117.985z"/>
	<path fill="#CCCCCC" d="M317.17,118.391C317.204,118.424,317.28,118.497,317.17,118.391L317.17,118.391z"/>
	<path fill="#CCCCCC" d="M280.993,119.485C281.055,119.643,281.207,119.436,280.993,119.485
		C281.002,119.508,281.023,119.478,280.993,119.485z"/>
	<path fill="#CCCCCC" d="M13.279,115.009C13.492,114.992,13.328,114.711,13.279,115.009
		C13.314,115.006,13.287,114.96,13.279,115.009z"/>
	<path fill="#CCCCCC" d="M362.771,109.223C362.487,109.12,362.755,109.493,362.771,109.223
		C362.736,109.21,362.77,109.249,362.771,109.223z"/>
	<path fill="#CCCCCC" d="M317.246,122.479C317.117,122.47,317.108,122.469,317.246,122.479L317.246,122.479z"/>
	<path fill="#CCCCCC" d="M98.783,99.885C98.642,100.083,98.877,100.117,98.783,99.885C98.762,99.914,98.797,99.92,98.783,99.885z"/>
	<path fill="#CCCCCC" d="M159.713,93.407C160.083,93.42,159.366,93.394,159.713,93.407
		C159.748,93.408,159.681,93.405,159.713,93.407z"/>
	<path fill="#CCCCCC" d="M112.003,90.974C112.091,90.743,111.774,90.734,112.003,90.974
		C112.015,90.941,111.964,90.933,112.003,90.974z"/>
	<path fill="#CCCCCC" d="M159.999,86.676C159.893,86.627,159.8,86.78,159.999,86.676C159.973,86.664,159.962,86.695,159.999,86.676z
		"/>
	<path fill="#CCCCCC" d="M203.315,82.441C203.357,82.401,203.414,82.347,203.315,82.441L203.315,82.441z"/>
	<path fill="#CCCCCC" d="M184.691,125.926C184.627,126.18,184.761,125.653,184.691,125.926
		C184.685,125.952,184.697,125.903,184.691,125.926z"/>
	<path fill="#CCCCCC" d="M152.066,80.205C152.114,80.103,151.96,80.015,152.066,80.205C152.077,80.18,152.046,80.17,152.066,80.205z
		"/>
	<path fill="#CCCCCC" d="M324.96,68.943C325.373,68.664,324.898,68.788,324.96,68.943C325.012,68.908,324.947,68.909,324.96,68.943z
		"/>
	<path fill="#CCCCCC" d="M325.145,68.519C325.1,68.983,325.238,68.604,325.145,68.519C325.138,68.592,325.169,68.541,325.145,68.519
		z"/>
	<path fill="#CCCCCC" d="M326.462,67.479C326.55,67.564,326.819,67.54,326.462,67.479C326.462,67.479,326.559,67.495,326.462,67.479
		z"/>
	<path fill="#CCCCCC" d="M302.092,129.219C301.943,129.217,301.931,129.217,302.092,129.219L302.092,129.219z"/>
	<path fill="#CCCCCC" d="M353.355,129.395C353.575,129.942,353.286,129.227,353.355,129.395
		C353.381,129.459,353.35,129.384,353.355,129.395z"/>
	<path fill="#CCCCCC" d="M186.706,54.895C186.941,54.802,186.632,54.586,186.706,54.895
		C186.745,54.879,186.693,54.842,186.706,54.895z"/>
	<path fill="#CCCCCC" d="M355.924,130.501C355.585,130.439,356.27,130.565,355.924,130.501
		C355.892,130.495,355.957,130.507,355.924,130.501z"/>
	<path fill="#CCCCCC" d="M43.732,51.442C43.918,51.858,43.637,51.23,43.732,51.442C43.752,51.488,43.725,51.428,43.732,51.442z"/>
	<path fill="#CCCCCC" d="M43.444,50.514C43.237,50.751,43.635,50.297,43.444,50.514C43.423,50.538,43.461,50.495,43.444,50.514z"/>
	<path fill="#CCCCCC" d="M194.155,45.497C194.082,45.187,193.916,45.457,194.155,45.497
		C194.142,45.443,194.115,45.491,194.155,45.497z"/>
	<path fill="#CCCCCC" d="M187.743,31.435C188.04,31.596,187.534,31.323,187.743,31.435
		C187.775,31.452,187.725,31.425,187.743,31.435z"/>
</g>
</svg>
