<?xml version="1.0" encoding="utf-8"?>
<!-- Generator: Adobe Illustrator 17.1.0, SVG Export Plug-In . SVG Version: 6.00 Build 0)  -->
<!DOCTYPE svg PUBLIC "-//W3C//DTD SVG 1.0//EN" "http://www.w3.org/TR/2001/REC-SVG-20010904/DTD/svg10.dtd">
<svg version="1.0" id="Capa_1" xmlns="http://www.w3.org/2000/svg" xmlns:xlink="http://www.w3.org/1999/xlink" x="0px" y="0px"
	 viewBox="0 0 97 97" enable-background="new 0 0 97 97" xml:space="preserve">
<g>
	<g>
		<path fill="#999999" d="M21.943,36.2c3.385-8.824,11.943-15.102,21.943-15.102c9.997,0,18.555,6.279,21.941,15.102h6.716
			C68.907,23.805,57.44,14.724,43.886,14.724c-13.553,0-25.019,9.08-28.655,21.475H21.943z"/>
		<path fill="#999999" d="M65.685,53.725c-3.179,8.801-10.481,16.939-18.862,20.588c11.987-1.175,21.91-9.471,25.491-20.588H65.685z
			"/>
		<path fill="#999999" d="M55.881,36.2h6.606c-3.313-9.164-12.171-12.551-17.921-12.551C49.725,26.276,53.79,30.752,55.881,36.2z"/>
		<path fill="#999999" d="M22.258,53.725h-6.683c3.823,9.582,13.718,11.81,17.686,11.81C28.34,63.029,24.425,58.835,22.258,53.725z"
			/>
		<path fill="#999999" d="M4.112,43.223h6.383c0.604-8.761,7.422-22.656,20.507-28.354C16.356,16.305,4.787,28.368,4.112,43.223z"/>
		<path fill="#999999" d="M55.578,53.725c-3.571,8.429-11.924,14.36-21.641,14.36c-12.429,0-22.634-9.706-23.437-21.94H4.12
			c0.811,15.747,13.871,28.315,29.817,28.315c13.285,0,24.569-8.72,28.438-20.735H55.578z"/>
	</g>
	<g>
		<path fill="#999999" d="M17.923,38.964v11.928h-2.974V38.964H17.923z"/>
		<path fill="#999999" d="M22.011,42.868c0.254-0.274,0.424-0.473,0.88-0.693c0.404-0.17,0.979-0.321,1.603-0.321
			c0.524,0,1.117,0.101,1.572,0.354c0.93,0.488,1.167,1.285,1.167,2.651v6.034h-2.585v-4.968c0-0.794-0.018-1.081-0.12-1.318
			c-0.203-0.471-0.659-0.677-1.166-0.677c-1.368,0-1.368,1.098-1.368,2.199v4.764h-2.602v-8.804h2.619V42.868z"/>
		<path fill="#999999" d="M29.209,39.521h2.585v2.754h1.707v1.589h-1.725v3.969c-0.017,0.541-0.017,0.995,0.677,0.995l0.929-0.032
			v2.031c-0.559,0.083-0.897,0.132-1.369,0.132c-0.895,0-1.875-0.05-2.432-0.862c-0.357-0.524-0.371-1.149-0.371-1.994v-4.258
			h-1.287v-1.588h1.287V39.521z"/>
		<path fill="#999999" d="M42.859,48.645c-0.304,0.455-0.607,0.896-1.064,1.319c-0.759,0.707-1.909,1.248-3.33,1.248
			c-2.618,0-4.46-1.671-4.46-4.56c0-2.129,1.047-4.867,4.528-4.867c0.525,0,2.044,0.051,3.178,1.268
			c1.148,1.231,1.216,2.956,1.249,3.954h-6.302c-0.017,1.097,0.609,2.197,2.011,2.197c1.42,0,1.909-0.929,2.23-1.554L42.859,48.645z
			 M40.273,45.384c-0.05-0.372-0.118-0.86-0.491-1.248c-0.32-0.323-0.811-0.492-1.267-0.492c-0.625,0-1.065,0.304-1.318,0.574
			c-0.353,0.39-0.439,0.795-0.523,1.167H40.273z"/>
		<path fill="#999999" d="M46.321,42.984c0.576-0.489,1.202-0.879,2.552-1.014v2.3l-0.86,0.134c-1.251,0.22-1.624,0.407-1.624,1.521
			v4.968h-2.602v-8.836h2.535V42.984z"/>
	</g>
	<g>
		<path fill="#999999" d="M56.384,38.964l4.393,11.928h-3.176l-0.592-1.908h-4.394l-0.592,1.908h-3.177l4.427-11.928H56.384z
			 M54.779,41.8c-0.152,0.611-0.321,1.235-0.49,1.843c-0.253,0.897-0.709,2.298-0.98,3.194h3.025L54.779,41.8z"/>
		<path fill="#999999" d="M68.581,48.813c-0.321,0.508-0.673,1.068-1.383,1.573c-0.678,0.473-1.54,0.794-2.536,0.794
			c-1.69,0-4.376-1.014-4.376-4.615c0-2.567,1.485-4.73,4.427-4.73c0.98,0,2.652,0.269,3.768,2.112l-1.926,1.099
			c-0.152-0.323-0.321-0.625-0.744-0.929c-0.253-0.17-0.575-0.305-0.981-0.305c-1.402,0-1.876,1.606-1.876,2.67
			c0,1.166,0.575,2.636,1.961,2.636c0.135,0,0.778,0,1.319-0.606c0.22-0.256,0.304-0.457,0.389-0.711L68.581,48.813z"/>
		<path fill="#999999" d="M70.152,39.521h2.585v2.754h1.708v1.589H72.72v3.969c-0.017,0.541-0.017,0.995,0.674,0.995l0.932-0.032
			v2.031c-0.558,0.083-0.896,0.132-1.368,0.132c-0.897,0-1.878-0.05-2.434-0.862c-0.356-0.524-0.372-1.149-0.372-1.994v-4.258
			h-1.285v-1.588h1.285V39.521z"/>
		<path fill="#999999" d="M75.507,42.056h2.569v8.836h-2.569V42.056z"/>
		<path fill="#999999" d="M75.507,39.462h2.569v1.573h-2.569V39.462z"/>
		<path fill="#999999" d="M88.365,46.466c0,2.231-1.286,4.682-4.732,4.682c-2.483,0-4.746-1.42-4.746-4.682
			c0-2.705,1.703-4.85,5.084-4.666C87.57,42.005,88.365,44.858,88.365,46.466z M81.944,44.724c-0.32,0.509-0.44,1.116-0.44,1.723
			c0,1.405,0.677,2.638,2.13,2.638c1.403,0,2.096-1.132,2.096-2.519c0-0.978-0.237-1.74-0.726-2.211
			c-0.542-0.509-1.152-0.526-1.522-0.49C82.738,43.916,82.299,44.168,81.944,44.724z"/>
		<path fill="#999999" d="M91.693,42.868c0.25-0.274,0.422-0.473,0.878-0.693c0.406-0.17,0.98-0.321,1.604-0.321
			c0.525,0,1.116,0.101,1.571,0.354c0.931,0.488,1.166,1.285,1.166,2.651v6.034h-2.586v-4.968c0-0.794-0.016-1.081-0.119-1.318
			c-0.203-0.471-0.658-0.677-1.164-0.677c-1.372,0-1.372,1.098-1.372,2.199v4.764h-2.599v-8.804h2.619V42.868z"/>
	</g>
	<g>
		<g>
			<path fill="#999999" d="M12.823,80.925l1.664,5.764h-1.233l-0.29-1.147h-1.768l-0.298,1.147H9.665l1.625-5.764H12.823z
				 M12.076,81.954h-0.032l-0.628,2.607h1.295L12.076,81.954z"/>
			<path fill="#999999" d="M17.049,80.925h1.311v3.801c0,0.345,0,1.06,0.777,1.06c0.244,0,0.809,0,0.809-1.052v-3.809h1.281v3.816
				c0,0.347-0.007,1.178-0.596,1.659c-0.4,0.321-0.896,0.438-1.423,0.438c-0.604,0-1.224-0.149-1.579-0.478
				c-0.557-0.525-0.58-1.187-0.58-1.705V80.925z"/>
			<path fill="#999999" d="M22.291,80.925h1.21l1.485,2.694c0.062,0.118,0.141,0.275,0.196,0.393
				c0.024,0.046,0.104,0.258,0.126,0.299h0.04l-0.031-0.583c-0.024-0.391-0.024-0.438-0.024-0.659v-2.144h1.162v5.764h-1.036
				l-1.532-2.796c-0.126-0.228-0.134-0.251-0.432-0.951h-0.039c0.007,0.165,0.039,0.896,0.039,1.045v2.702h-1.163V80.925z"/>
			<path fill="#999999" d="M27.64,86.689v-5.764h1.271v5.764H27.64z"/>
			<path fill="#999999" d="M55.784,86.689v-5.764h1.27v5.764H55.784z"/>
			<path fill="#999999" d="M33.956,80.925v1.053h-1.437v4.711h-1.319v-4.711h-1.47v-1.053H33.956z"/>
			<path fill="#999999" d="M34.747,80.925h3.874v1.053h-2.616v1.224h1.798v1.053H36.02v1.359h2.781v1.076h-4.054V80.925z"/>
			<path fill="#999999" d="M39.657,80.925h1.399c1.406,0,1.9,0.266,2.23,0.746c0.252,0.369,0.347,0.77,0.347,2.066l-0.008,0.981
				c0,0.652-0.157,1.344-0.793,1.666c-0.416,0.212-0.77,0.251-1.232,0.291c-0.165,0.015-0.99,0.015-1.941,0.015V80.925z
				 M40.946,85.66h0.361c0.511,0,1.03-0.094,1.03-1.202c0-0.197,0.015-0.51,0.015-0.707c0-0.692-0.015-1.171-0.211-1.453
				c-0.244-0.354-0.519-0.354-1.195-0.354V85.66z"/>
			<path fill="#999999" d="M47.356,86.689l-1.76-5.764h1.265l0.896,3.102c0.132,0.471,0.228,0.802,0.274,0.982h0.031
				c0.086-0.345,0.182-0.691,0.275-1.036l0.856-3.048h1.257l-1.72,5.764H47.356z"/>
			<path fill="#999999" d="M50.844,82.959c0-0.589,0.101-1.156,0.502-1.595c0.363-0.4,0.905-0.549,1.447-0.549
				c0.59,0,1.131,0.141,1.516,0.557c0.322,0.345,0.503,0.856,0.503,1.783v1.398c0,0.808-0.134,1.327-0.495,1.719
				c-0.48,0.519-1.171,0.574-1.54,0.574c-0.565,0-1.492-0.203-1.781-1.178c-0.127-0.409-0.151-0.911-0.151-1.163V82.959z
				 M52.133,84.764c0,0.606,0.118,1.039,0.683,1.039c0.682,0,0.682-0.637,0.682-1.039v-2.001c0-0.401,0-0.887-0.668-0.887
				c-0.697,0-0.697,0.659-0.697,0.887V84.764z"/>
			<path fill="#999999" d="M58.006,82.864c0-1.319,0.707-2.066,2.051-2.066c0.347,0,0.864,0.071,1.264,0.385
				c0.52,0.407,0.582,1.116,0.598,1.579h-1.265c-0.007-0.283-0.023-0.911-0.651-0.911c-0.158,0-0.354,0.062-0.479,0.18
				c-0.204,0.189-0.212,0.471-0.212,0.629v2.192c0,0.314,0,0.919,0.699,0.919c0.518,0,0.676-0.425,0.676-1.045h1.272
				c-0.007,0.416-0.015,0.463-0.054,0.706c-0.047,0.229-0.126,0.644-0.605,1.031c-0.407,0.329-1.004,0.384-1.256,0.384
				c-0.668,0-1.132-0.157-1.492-0.51c-0.236-0.228-0.544-0.557-0.544-1.737V82.864z"/>
			<path fill="#999999" d="M63.012,80.925h3.873v1.053h-2.616v1.224h1.8v1.053h-1.784v1.359h2.781v1.076h-4.053V80.925z"/>
		</g>
		<g>
			<path fill="#999999" d="M0.144,90.816h3.833v1.052H1.416v1.24h1.705v1.07H1.416v2.403H0.144V90.816z"/>
			<path fill="#999999" d="M4.685,92.85c0-0.589,0.101-1.154,0.502-1.594c0.361-0.4,0.903-0.55,1.445-0.55
				c0.588,0,1.131,0.142,1.516,0.559c0.323,0.345,0.503,0.855,0.503,1.782v1.398c0,0.81-0.134,1.328-0.496,1.721
				c-0.479,0.518-1.17,0.574-1.538,0.574c-0.566,0-1.494-0.204-1.784-1.179c-0.126-0.407-0.148-0.911-0.148-1.162V92.85z
				 M5.973,94.657c0,0.605,0.117,1.037,0.684,1.037c0.682,0,0.682-0.636,0.682-1.037v-2.004c0-0.399,0-0.887-0.667-0.887
				c-0.698,0-0.698,0.659-0.698,0.887V94.657z"/>
			<path fill="#999999" d="M10.776,96.582H9.527v-5.765h1.862c0.934,0,2.121,0.126,2.121,1.672c0,0.731-0.291,1.289-1.1,1.532
				l1.257,2.561h-1.375L11.2,94.226h-0.424V96.582z M10.776,93.307c0.715,0,0.824,0,1.005-0.064
				c0.401-0.141,0.432-0.455,0.432-0.769c0-0.401-0.125-0.597-0.377-0.692c-0.197-0.07-0.353-0.07-1.061-0.07V93.307z"/>
			<path fill="#999999" d="M16.337,92.946c0-0.512,0-1.242,0.596-1.793c0.44-0.4,0.958-0.454,1.516-0.454
				c1.091,0,1.869,0.666,1.869,1.782h-1.257c-0.024-0.51-0.282-0.746-0.714-0.746c-0.66,0-0.708,0.566-0.708,0.904v1.814
				c0,0.754,0.142,1.218,0.763,1.218c0.659,0,0.659-0.542,0.659-0.753v-0.394h-0.676v-0.958h1.933v3.079h-0.566l-0.164-0.4h-0.056
				c-0.165,0.197-0.424,0.495-1.312,0.495c-0.581,0-1.115-0.165-1.491-0.638c-0.314-0.399-0.393-0.879-0.393-1.593V92.946z"/>
			<path fill="#999999" d="M21.333,90.816h1.288v4.689h2.537v1.077h-3.825V90.816z"/>
			<path fill="#999999" d="M25.783,92.85c0-0.589,0.102-1.154,0.503-1.594c0.361-0.4,0.902-0.55,1.444-0.55
				c0.59,0,1.131,0.142,1.516,0.559c0.321,0.345,0.503,0.855,0.503,1.782v1.398c0,0.81-0.134,1.328-0.496,1.721
				c-0.479,0.518-1.17,0.574-1.539,0.574c-0.565,0-1.493-0.204-1.783-1.179c-0.125-0.407-0.149-0.911-0.149-1.162V92.85z
				 M27.071,94.657c0,0.605,0.117,1.037,0.683,1.037c0.682,0,0.682-0.636,0.682-1.037v-2.004c0-0.399,0-0.887-0.667-0.887
				c-0.698,0-0.698,0.659-0.698,0.887V94.657z"/>
			<path fill="#999999" d="M30.611,90.816h1.9c0.496,0,0.976,0.031,1.306,0.236c0.424,0.258,0.619,0.746,0.619,1.224
				c0,0.7-0.345,1.147-0.793,1.249v0.039c0.386,0.055,0.919,0.472,0.919,1.32c0,0.424-0.062,0.855-0.448,1.24
				c-0.416,0.425-0.911,0.456-1.642,0.456h-1.862V90.816z M31.845,93.164c1.013,0,1.343-0.031,1.343-0.761
				c0-0.699-0.511-0.699-0.769-0.699h-0.573V93.164z M31.845,95.671h0.628c0.503,0,0.819-0.235,0.819-0.825
				c0-0.275-0.071-0.597-0.37-0.722c-0.181-0.07-0.629-0.07-1.076-0.07V95.671z"/>
			<path fill="#999999" d="M38.101,90.816l1.664,5.765h-1.232l-0.291-1.146h-1.767l-0.299,1.146h-1.232l1.625-5.765H38.101z
				 M37.354,91.845h-0.031l-0.629,2.608h1.297L37.354,91.845z"/>
			<path fill="#999999" d="M40.292,90.816h1.288v4.689h2.537v1.077h-3.825V90.816z"/>
			<path fill="#999999" d="M47.057,92.756c0-1.32,0.707-2.067,2.048-2.067c0.346,0,0.865,0.072,1.267,0.386
				c0.518,0.409,0.58,1.115,0.596,1.579h-1.265c-0.007-0.282-0.023-0.911-0.651-0.911c-0.156,0-0.353,0.064-0.479,0.181
				c-0.205,0.188-0.213,0.47-0.213,0.629v2.191c0,0.314,0,0.918,0.699,0.918c0.519,0,0.676-0.424,0.676-1.044h1.273
				c-0.007,0.416-0.016,0.463-0.055,0.707c-0.047,0.228-0.126,0.644-0.605,1.028c-0.408,0.33-1.005,0.385-1.257,0.385
				c-0.667,0-1.131-0.157-1.492-0.512c-0.236-0.227-0.542-0.557-0.542-1.735V92.756z"/>
			<path fill="#999999" d="M52.039,90.816h1.281V93h1.618v-2.183h1.296v5.765H54.96v-2.49h-1.633v2.49h-1.289V90.816z"/>
			<path fill="#999999" d="M60.067,90.816l1.665,5.765h-1.232l-0.291-1.146h-1.768l-0.299,1.146H56.91l1.625-5.765H60.067z
				 M59.321,91.845h-0.032l-0.628,2.608h1.297L59.321,91.845z"/>
			<path fill="#999999" d="M62.416,90.816h1.211l1.483,2.695c0.063,0.117,0.141,0.274,0.197,0.391
				c0.023,0.048,0.102,0.259,0.126,0.3h0.038L65.44,93.62c-0.024-0.393-0.024-0.439-0.024-0.66v-2.144h1.163v5.765h-1.036
				l-1.533-2.797c-0.125-0.227-0.133-0.252-0.432-0.95h-0.039c0.008,0.165,0.039,0.896,0.039,1.043v2.703h-1.162V90.816z"/>
			<path fill="#999999" d="M67.555,92.946c0-0.512,0-1.242,0.597-1.793c0.44-0.4,0.958-0.454,1.515-0.454
				c1.093,0,1.87,0.666,1.87,1.782h-1.256c-0.023-0.51-0.282-0.746-0.714-0.746c-0.66,0-0.707,0.566-0.707,0.904v1.814
				c0,0.754,0.142,1.218,0.762,1.218c0.66,0,0.66-0.542,0.66-0.753v-0.394h-0.676v-0.958h1.932v3.079h-0.565l-0.165-0.4h-0.055
				c-0.165,0.197-0.424,0.495-1.311,0.495c-0.582,0-1.115-0.165-1.492-0.638c-0.315-0.399-0.394-0.879-0.394-1.593V92.946z"/>
			<path fill="#999999" d="M72.647,90.816h3.872v1.052h-2.616v1.226h1.799v1.052h-1.783v1.358h2.665v1.077h-3.937V90.816z"/>
		</g>
	</g>
	<g>
		<path fill="#999999" d="M2.84,0.261h1.036l2.753,7.046H5.593l-0.77-2.122h-2.98l-0.79,2.122H0.087L2.84,0.261z M2.139,4.396h2.388
			L3.353,1.11h-0.02L2.139,4.396z"/>
		<path fill="#999999" d="M7.101,2.205H7.89v0.809h0.02c0.355-0.632,0.928-0.928,1.658-0.928c1.342,0,1.757,0.77,1.757,1.865v3.355
			h-0.839V3.853c0-0.622-0.395-1.027-1.036-1.027c-1.017,0-1.51,0.681-1.51,1.599v2.882H7.101V2.205z"/>
		<path fill="#999999" d="M15.925,1.287h-0.839V0.261h0.839V1.287z M15.087,2.205h0.839v5.102h-0.839V2.205z"/>
		<path fill="#999999" d="M16.988,2.205h0.79v0.809h0.02c0.355-0.632,0.928-0.928,1.658-0.928c1.342,0,1.757,0.77,1.757,1.865v3.355
			h-0.839V3.853c0-0.622-0.395-1.027-1.036-1.027c-1.017,0-1.51,0.681-1.51,1.599v2.882h-0.839V2.205z"/>
		<path fill="#999999" d="M23.123,1.287h-0.839V0.261h0.839V1.287z M22.284,2.205h0.839v5.102h-0.839V2.205z"/>
		<path fill="#999999" d="M25.384,2.205H26.4v0.74h-1.017v3.168c0,0.385,0.109,0.454,0.632,0.454H26.4v0.74h-0.641
			c-0.869,0-1.214-0.178-1.214-1.115V2.945h-0.869v-0.74h0.869v-1.53h0.839V2.205z"/>
		<path fill="#999999" d="M27.941,1.287h-0.839V0.261h0.839V1.287z M27.102,2.205h0.839v5.102h-0.839V2.205z"/>
		<path fill="#999999" d="M33.546,7.287c-0.148,0.089-0.336,0.138-0.602,0.138c-0.434,0-0.71-0.237-0.71-0.789
			c-0.464,0.543-1.086,0.789-1.796,0.789c-0.928,0-1.688-0.414-1.688-1.431c0-1.155,0.859-1.401,1.727-1.569
			c0.928-0.178,1.717-0.118,1.717-0.75c0-0.73-0.602-0.849-1.135-0.849c-0.71,0-1.234,0.217-1.273,0.967h-0.839
			c0.049-1.263,1.026-1.707,2.161-1.707c0.918,0,1.914,0.207,1.914,1.401v2.625c0,0.395,0,0.573,0.267,0.573
			c0.069,0,0.148-0.01,0.257-0.049V7.287z M32.184,4.672c-0.326,0.237-0.957,0.247-1.52,0.346c-0.553,0.099-1.027,0.296-1.027,0.918
			c0,0.553,0.474,0.75,0.987,0.75c1.105,0,1.559-0.691,1.559-1.155V4.672z"/>
		<path fill="#999999" d="M35.268,2.205h1.017v0.74h-1.017v3.168c0,0.385,0.109,0.454,0.632,0.454h0.385v0.74h-0.641
			c-0.868,0-1.214-0.178-1.214-1.115V2.945h-0.869v-0.74h0.869v-1.53h0.839V2.205z"/>
		<path fill="#999999" d="M37.826,1.287h-0.839V0.261h0.839V1.287z M36.987,2.205h0.839v5.102h-0.839V2.205z"/>
		<path fill="#999999" d="M41.195,7.307h-0.898l-1.895-5.102h0.937l1.431,4.253h0.02l1.391-4.253h0.878L41.195,7.307z"/>
		<path fill="#999999" d="M47.791,5.689c-0.227,1.125-1.036,1.737-2.181,1.737c-1.628,0-2.398-1.125-2.447-2.684
			c0-1.53,1.007-2.655,2.398-2.655c1.806,0,2.359,1.687,2.309,2.921H44.05c-0.03,0.888,0.474,1.678,1.589,1.678
			c0.691,0,1.174-0.336,1.322-0.997H47.791z M46.981,4.267c-0.039-0.799-0.641-1.441-1.47-1.441c-0.878,0-1.401,0.661-1.461,1.441
			H46.981z"/>
		<path fill="#999999" d="M51.237,0.261h0.839v7.046h-0.839V0.261z"/>
		<path fill="#999999" d="M57.513,5.689c-0.227,1.125-1.036,1.737-2.181,1.737c-1.628,0-2.398-1.125-2.447-2.684
			c0-1.53,1.007-2.655,2.398-2.655c1.806,0,2.359,1.687,2.309,2.921h-3.819c-0.03,0.888,0.474,1.678,1.589,1.678
			c0.691,0,1.174-0.336,1.322-0.997H57.513z M56.703,4.267c-0.039-0.799-0.641-1.441-1.47-1.441c-0.878,0-1.401,0.661-1.461,1.441
			H56.703z"/>
		<path fill="#999999" d="M62.908,7.307h-0.839V6.616h-0.02c-0.276,0.563-0.928,0.809-1.628,0.809c-1.569,0-2.349-1.243-2.349-2.684
			s0.77-2.655,2.329-2.655c0.523,0,1.273,0.197,1.648,0.799h0.02V0.261h0.839V7.307z M60.539,6.685c1.125,0,1.559-0.967,1.559-1.925
			c0-1.006-0.454-1.934-1.608-1.934c-1.145,0-1.53,0.977-1.53,1.974C58.96,5.758,59.454,6.685,60.539,6.685z"/>
		<path fill="#999999" d="M66.679,0.261h0.839v2.635h0.02c0.276-0.563,0.928-0.809,1.628-0.809c1.569,0,2.349,1.243,2.349,2.684
			c0,1.441-0.77,2.655-2.329,2.655c-0.523,0-1.273-0.197-1.648-0.799h-0.02v0.681h-0.839V0.261z M69.048,2.827
			c-1.125,0-1.559,0.967-1.559,1.925c0,1.006,0.454,1.934,1.609,1.934c1.145,0,1.53-0.977,1.53-1.974
			C70.627,3.754,70.133,2.827,69.048,2.827z"/>
		<path fill="#999999" d="M74.135,7.988c-0.385,0.997-0.73,1.362-1.48,1.362c-0.197,0-0.395-0.02-0.582-0.089v-0.77
			c0.158,0.049,0.326,0.118,0.493,0.118c0.346,0,0.533-0.168,0.691-0.464l0.345-0.868l-2.023-5.073h0.947l1.49,4.175h0.02
			l1.431-4.175h0.888L74.135,7.988z"/>
	</g>
</g>
<g>
</g>
<g>
</g>
<g>
</g>
<g>
</g>
<g>
</g>
<g>
</g>
<g>
</g>
<g>
</g>
<g>
</g>
<g>
</g>
<g>
</g>
</svg>
