<?xml version="1.0" encoding="utf-8"?>
<!-- Generator: Adobe Illustrator 17.1.0, SVG Export Plug-In . SVG Version: 6.00 Build 0)  -->
<!DOCTYPE svg PUBLIC "-//W3C//DTD SVG 1.0//EN" "http://www.w3.org/TR/2001/REC-SVG-20010904/DTD/svg10.dtd">
<svg version="1.0" id="Capa_1" xmlns="http://www.w3.org/2000/svg" xmlns:xlink="http://www.w3.org/1999/xlink" x="0px" y="0px"
	 viewBox="0 0 153 100" enable-background="new 0 0 153 100" xml:space="preserve">
<g>
	<path fill="#FFFFFF" d="M29.971,36.332c5.511-14.369,19.451-24.596,35.737-24.596c16.283,0,30.22,10.227,35.736,24.596h10.935
		C106.459,16.145,87.783,1.357,65.708,1.357c-22.073,0-40.747,14.789-46.668,34.975H29.971z"/>
	<path fill="#FFFFFF" d="M101.21,64.874c-5.177,14.336-17.071,27.59-30.718,33.531c19.521-1.915,35.685-15.426,41.516-33.531H101.21
		z"/>
	<path fill="#FFFFFF" d="M85.242,36.332H96c-5.395-14.925-19.822-20.441-29.184-20.441C75.217,20.172,81.837,27.461,85.242,36.332z"
		/>
	<path fill="#FFFFFF" d="M30.482,64.874H19.597c6.228,15.605,22.341,19.237,28.806,19.237
		C40.389,80.027,34.012,73.196,30.482,64.874z"/>
	<path fill="#FFFFFF" d="M0.93,47.772h10.396c0.984-14.27,12.087-36.901,33.4-46.179C20.872,3.931,2.029,23.577,0.93,47.772z"/>
	<path fill="#FFFFFF" d="M84.749,64.874c-5.817,13.729-19.421,23.388-35.245,23.388c-20.243,0-36.863-15.809-38.171-35.734H0.944
		c1.319,25.648,22.589,46.114,48.56,46.114c21.636,0,40.016-14.201,46.314-33.769H84.749z"/>
	<path fill="#FFFFFF" d="M23.422,40.834v19.427h-4.843V40.834H23.422z"/>
	<path fill="#FFFFFF" d="M30.081,47.192c0.413-0.446,0.689-0.77,1.432-1.13c0.659-0.276,1.595-0.523,2.612-0.523
		c0.854,0,1.818,0.165,2.56,0.578c1.515,0.794,1.9,2.092,1.9,4.317v9.827h-4.21V52.17c0-1.294-0.028-1.76-0.194-2.145
		c-0.331-0.77-1.073-1.104-1.9-1.104c-2.229,0-2.229,1.789-2.229,3.58v7.76h-4.238V45.923h4.266V47.192z"/>
	<path fill="#FFFFFF" d="M41.803,41.741h4.21v4.487h2.781v2.588h-2.809v6.465c-0.026,0.881-0.026,1.622,1.101,1.622l1.515-0.054
		v3.305c-0.91,0.135-1.458,0.218-2.23,0.218c-1.458,0-3.055-0.082-3.962-1.404c-0.58-0.854-0.605-1.872-0.605-3.247v-6.935h-2.095
		v-2.586h2.095V41.741z"/>
	<path fill="#FFFFFF" d="M64.035,56.602c-0.495,0.742-0.989,1.458-1.734,2.148c-1.237,1.152-3.109,2.034-5.422,2.034
		c-4.265,0-7.264-2.724-7.264-7.428c0-3.469,1.705-7.928,7.373-7.928c0.855,0,3.331,0.084,5.177,2.065
		c1.869,2.006,1.98,4.816,2.035,6.439H53.936c-0.028,1.789,0.99,3.578,3.275,3.578c2.312,0,3.108-1.512,3.631-2.53L64.035,56.602z
		 M59.824,51.29c-0.081-0.606-0.192-1.403-0.798-2.034c-0.522-0.526-1.321-0.802-2.064-0.802c-1.019,0-1.735,0.497-2.147,0.935
		c-0.576,0.636-0.714,1.296-0.851,1.901H59.824z"/>
	<path fill="#FFFFFF" d="M69.673,47.382c0.938-0.799,1.957-1.432,4.156-1.653v3.745l-1.401,0.219
		c-2.038,0.357-2.645,0.662-2.645,2.476v8.091h-4.238V45.869h4.128V47.382z"/>
	<path fill="#FFFFFF" d="M86.063,40.834l7.155,19.427h-5.173l-0.963-3.107h-7.156l-0.964,3.107h-5.173l7.21-19.427H86.063z
		 M83.448,45.454c-0.248,0.993-0.523,2.01-0.799,3c-0.412,1.461-1.155,3.744-1.596,5.203h4.927L83.448,45.454z"/>
	<path fill="#FFFFFF" d="M105.927,56.875c-0.522,0.828-1.098,1.739-2.253,2.562c-1.104,0.771-2.506,1.294-4.129,1.294
		c-2.753,0-7.127-1.652-7.127-7.516c0-4.18,2.419-7.703,7.209-7.703c1.596,0,4.32,0.439,6.137,3.439l-3.137,1.789
		c-0.249-0.524-0.522-1.018-1.211-1.513c-0.412-0.276-0.937-0.497-1.597-0.497c-2.284,0-3.055,2.616-3.055,4.351
		c0,1.899,0.934,4.292,3.192,4.292c0.22,0,1.266,0,2.148-0.989c0.357-0.417,0.495-0.745,0.633-1.158L105.927,56.875z"/>
	<path fill="#FFFFFF" d="M108.486,41.741h4.21v4.487h2.78v2.588h-2.808v6.465c-0.029,0.881-0.029,1.622,1.099,1.622l1.516-0.054
		v3.305c-0.908,0.135-1.458,0.218-2.228,0.218c-1.46,0-3.056-0.082-3.963-1.404c-0.578-0.854-0.606-1.872-0.606-3.247v-6.935h-2.093
		v-2.586h2.093V41.741z"/>
	<path fill="#FFFFFF" d="M117.206,45.869h4.184v14.392h-4.184V45.869z"/>
	<path fill="#FFFFFF" d="M117.206,41.646h4.184v2.564h-4.184V41.646z"/>
	<path fill="#FFFFFF" d="M138.148,53.051c0,3.634-2.093,7.625-7.706,7.625c-4.045,0-7.733-2.312-7.733-7.625
		c0-4.406,2.777-7.898,8.282-7.598C136.855,45.787,138.148,50.435,138.148,53.051z M127.692,50.216
		c-0.523,0.829-0.718,1.816-0.718,2.805c0,2.287,1.103,4.297,3.469,4.297c2.284,0,3.413-1.844,3.413-4.103
		c0-1.592-0.387-2.833-1.183-3.6c-0.882-0.829-1.873-0.857-2.478-0.799C128.983,48.897,128.269,49.31,127.692,50.216z"/>
	<path fill="#FFFFFF" d="M143.569,47.192c0.409-0.446,0.688-0.77,1.43-1.13c0.661-0.276,1.596-0.523,2.613-0.523
		c0.856,0,1.819,0.165,2.559,0.578c1.515,0.794,1.899,2.092,1.899,4.317v9.827h-4.21V52.17c0-1.294-0.026-1.76-0.194-2.145
		c-0.33-0.77-1.072-1.104-1.896-1.104c-2.231,0-2.231,1.789-2.231,3.58v7.76h-4.236V45.923h4.267V47.192z"/>
</g>
</svg>
